<svg width="70" height="74" viewBox="0 0 70 74" fill="none" xmlns="http://www.w3.org/2000/svg">
<g clip-path="url(#clip0_52_47)">
<path d="M63.9344 15.1619C64.7073 16.9772 65.4209 17.8352 65.2821 18.5041C64.7757 20.9963 64.3963 23.601 63.2767 25.8896C60.4792 32.1216 55.9102 36.8982 50.5152 40.9436C41.334 47.8573 30.8982 51.9638 19.8462 54.846C18.6643 55.1569 17.5459 55.5239 16.3079 55.8982C16.2518 55.9616 16.2031 56.1446 16.1617 56.4473C17.8963 57.3044 19.6944 58.2178 21.3728 59.1383C22.2475 59.6865 23.1369 60.474 23.6748 61.4026C24.0073 61.9232 24.0251 63.1831 23.6322 63.6269C23.127 64.1975 22.0648 64.5012 21.2345 64.6709C20.6362 64.7066 20.0082 64.2638 19.3877 63.9406C14.7337 61.5166 9.96736 59.2194 5.30592 56.6758C1.32856 54.5116 1.20278 52.4775 4.2562 49.4128C7.42189 46.2212 10.4605 42.9171 13.5065 39.7327C14.4682 38.7745 15.6131 37.8654 16.7505 36.8367C18.3524 40.4039 18.3524 40.4039 10.2118 51.5188C18.1438 50.6244 25.0783 48.1683 31.9346 45.4167C38.7908 42.6651 45.0457 38.9286 50.8188 34.2001C56.7603 29.2815 60.4516 22.936 63.9344 15.1619Z" fill="#59856E"/>
</g>
<defs>
<clipPath id="clip0_52_47">
<rect width="30.1106" height="70.258" fill="white" transform="translate(23.4294 73.1379) rotate(-138.48)"/>
</clipPath>
</defs>
</svg>
