<svg width="50" height="50" viewBox="0 0 50 50" fill="none" xmlns="http://www.w3.org/2000/svg">
<g clip-path="url(#clip0_135_262)">
<rect width="50" height="50" rx="10" fill="#B5D0C2"/>
<path d="M40.4078 38.713C41.6359 41.3055 42.25 50.75 42.25 50.75H7.75C7.75 50.75 8.36413 41.3055 9.59223 38.713C11.4345 34.8241 24.8744 32 24.8744 32C24.8744 32 38.5655 34.8241 40.4078 38.713Z" fill="#35433C"/>
<path d="M38.5 33L13.625 32.625C12.2901 25.5386 12.4174 14.4117 16.919 12.5685C19 5.75 27.0995 6.30467 29.3953 6.8605C37.2079 8.75228 39.746 19.9753 38.5 33Z" fill="url(#paint0_linear_135_262)"/>
<path d="M21 33.125V23.1667C16.8298 23.1043 17.6432 15.878 21.8333 18.0833C22.5833 18.4167 24.5 17.5 23.8333 15.25C28.3333 18.5833 34.604 12.7333 35 16.3333C35.7792 23.4185 34.2715 29.242 30.2737 29.2423C29.8477 29.2586 29.4211 29.2332 29 29.1667V33.125C27.695 33.9028 26.39 34.2917 25.085 34.2917C23.78 34.2917 22.4183 33.9028 21 33.125Z" fill="#FFDBC9"/>
<path d="M29 29.1667V30.5C26.5 30.5 24.5556 29.3055 23.1667 26.9167C24.8333 28.0278 26.7778 28.7778 29 29.1667Z" fill="#FFBC9E"/>
<path d="M28.074 22.7195V22.7199L28.0881 22.7191C29.0972 22.6622 29.5979 21.8029 29.7781 21.0003C29.8701 20.5901 29.888 20.1652 29.8451 19.8029C29.8236 19.6216 29.7863 19.4506 29.7321 19.3022C29.6814 19.1634 29.6108 19.0298 29.5119 18.9287C29.358 18.7339 29.1196 18.5977 28.8686 18.5017C28.6059 18.4012 28.301 18.3339 27.9938 18.295C27.3953 18.2193 26.7388 18.2457 26.314 18.3819C25.8272 18.4735 25.4087 18.9341 25.1722 19.4554C24.9262 19.9976 24.8358 20.6882 25.0927 21.3144L25.0955 21.3212L25.0987 21.3278C25.4646 22.0885 25.9465 22.4533 26.4948 22.6117C26.9217 22.7351 27.3856 22.7283 27.8093 22.7221C27.8996 22.7208 27.9881 22.7195 28.074 22.7195Z" fill="#B7E4F8" fill-opacity="0.2" stroke="#59856E" stroke-width="0.5"/>
<path d="M32.7932 22.4662H32.7679L32.7432 22.4611C31.7735 22.2628 31.2767 21.4391 31.0927 20.6569C30.9997 20.2618 30.9807 19.8587 31.0234 19.5136C31.0636 19.1895 31.1642 18.87 31.3555 18.6753C31.5096 18.4803 31.7488 18.3444 32.0004 18.2487C32.2638 18.1486 32.5697 18.0818 32.8778 18.0433C33.4782 17.9685 34.1365 17.9957 34.5613 18.132C34.8199 18.1814 35.0319 18.3445 35.193 18.5487C35.3588 18.7588 35.4839 19.0281 35.5654 19.319C35.7276 19.8982 35.7304 20.6127 35.4813 21.2199L35.4785 21.2267L35.4753 21.2334C35.1165 21.9794 34.7111 22.3203 34.2154 22.4406C33.9814 22.4974 33.7425 22.5009 33.5106 22.4932C33.4208 22.4902 33.3345 22.4858 33.2485 22.4813C33.1011 22.4737 32.9548 22.4662 32.7932 22.4662Z" fill="#B7E4F8" fill-opacity="0.2" stroke="#59856E" stroke-width="0.5"/>
<path d="M29.5025 19.1399C30.4168 18.8154 30.6133 18.9192 31.25 19.25" stroke="#59856E" stroke-width="0.5"/>
<path d="M22.3318 17.8888C22.2013 17.8436 22.0589 17.9128 22.0137 18.0432C21.9686 18.1737 22.0377 18.3161 22.1682 18.3613L22.3318 17.8888ZM25.5818 19.0138L22.3318 17.8888L22.1682 18.3613L25.4182 19.4862L25.5818 19.0138Z" fill="#59856E"/>
</g>
<defs>
<linearGradient id="paint0_linear_135_262" x1="25.6066" y1="29.2352" x2="25.6066" y2="6.55552" gradientUnits="userSpaceOnUse">
<stop stop-color="#DAC483"/>
<stop offset="1" stop-color="#B09C62"/>
</linearGradient>
<clipPath id="clip0_135_262">
<rect width="50" height="50" rx="10" fill="white"/>
</clipPath>
</defs>
</svg>
