<svg width="204" height="200" viewBox="0 0 204 200" fill="none" xmlns="http://www.w3.org/2000/svg">
<path d="M42.894 65.6734C43.5356 65.2895 44.2256 64.9933 44.9458 64.7928L45.3861 62.763L48.8205 62.7014L49.3136 64.7179C50.0417 64.8953 50.7424 65.1708 51.3962 65.5369L53.131 64.4009L55.6011 66.7873L54.5268 68.5485C54.9097 69.1921 55.2058 69.8835 55.4074 70.6047L57.4371 71.045L57.4988 74.4794L55.4822 74.9725C55.3033 75.7001 55.0279 76.4005 54.6633 77.0551L55.7992 78.7899L53.4128 81.2336L51.6516 80.1592C51.0093 80.5415 50.3194 80.8376 49.5998 81.0398L49.1595 83.074L45.7296 83.1313L45.2364 81.1191C44.5076 80.9375 43.8059 80.6607 43.1494 80.2957L41.4146 81.4361L38.9446 79.0497L40.0233 77.2885C39.6394 76.647 39.3432 75.9569 39.1427 75.2367L37.1129 74.7964L37.0513 71.3621L39.037 70.8865C39.2151 70.1586 39.4906 69.4581 39.856 68.8039L38.7156 67.0691L41.102 64.599L42.8632 65.6734H42.894ZM44.7257 70.2481C44.2207 70.7721 43.8824 71.4341 43.7535 72.1504C43.6246 72.8667 43.711 73.6051 44.0016 74.2723C44.2923 74.9395 44.7742 75.5056 45.3865 75.899C45.9987 76.2924 46.7139 76.4955 47.4416 76.4826C48.1692 76.4697 48.8767 76.2413 49.4747 75.8264C50.0726 75.4115 50.5341 74.8287 50.8009 74.1516C51.0677 73.4745 51.1278 72.7335 50.9735 72.0222C50.8193 71.311 50.4577 70.6614 49.9344 70.1556C49.2313 69.4776 48.2876 69.1064 47.3109 69.1237C46.3342 69.1411 45.4044 69.5455 44.7257 70.2481Z" fill="#E0E0E0"/>
<path d="M44.7255 70.2481C44.9172 70.0098 45.148 69.8058 45.408 69.6448C46.1199 69.1839 46.9692 68.9832 47.812 69.0769C48.439 69.145 49.0385 69.3704 49.555 69.7321C50.0715 70.0939 50.4882 70.5804 50.7665 71.1463C50.9309 71.4718 51.0438 71.8208 51.1011 72.181C51.1606 72.5558 51.1606 72.9377 51.1011 73.3125C50.9963 74.1118 50.6377 74.8563 50.0781 75.4365C49.5185 76.0166 48.7875 76.4019 47.9926 76.5355C47.6162 76.5949 47.2329 76.5949 46.8566 76.5355C46.4955 76.4895 46.1436 76.3885 45.8131 76.2361C45.1959 75.9597 44.665 75.5215 44.2764 74.9681C43.8666 74.3812 43.6346 73.6888 43.608 72.9735C43.5815 72.2583 43.7616 71.5505 44.1267 70.9349C44.2793 70.6702 44.4742 70.4323 44.7035 70.2304C44.5211 70.4704 44.352 70.7203 44.1972 70.979C43.8014 71.6964 43.6573 72.5257 43.7877 73.3346C43.8838 73.9282 44.1266 74.4884 44.4942 74.9644C44.8617 75.4403 45.3423 75.8169 45.8923 76.06C46.5402 76.3481 47.2594 76.4355 47.9573 76.311C48.7072 76.1916 49.3995 75.8359 49.9332 75.2958C50.467 74.7558 50.8144 74.0594 50.925 73.3081C50.9845 72.9525 50.9845 72.5894 50.925 72.2338C50.8717 71.8924 50.7663 71.5613 50.6124 71.2519C50.351 70.7108 49.9582 70.2439 49.4697 69.8939C48.9813 69.5439 48.4128 69.3221 47.8165 69.2486C47.003 69.1457 46.1785 69.3178 45.4741 69.7373C45.2153 69.8936 44.9654 70.0641 44.7255 70.2481Z" fill="#E0E0E0"/>
<path d="M42.8942 65.6733L42.7797 65.6117L42.4407 65.418L41.1198 64.6254H41.1638L38.7906 67.1087V67.0427C39.134 67.5666 39.5215 68.1522 39.9353 68.7731V68.8039V68.8391C39.5742 69.4892 39.3031 70.1854 39.1296 70.9085V70.9481H39.0856L37.0734 71.4501L37.1306 71.3752C37.1526 72.454 37.1747 73.6031 37.1967 74.8096L37.1306 74.7259L39.1648 75.1662H39.2177V75.219C39.4219 75.931 39.718 76.6133 40.0983 77.2488L40.1291 77.2929L40.0983 77.3413L39.0283 79.1025V78.988L41.5028 81.37H41.3795L43.1143 80.2297L43.1671 80.1988L43.22 80.2297C43.8668 80.5879 44.5582 80.8589 45.2762 81.0354H45.3378V81.097C45.4919 81.7267 45.6636 82.4179 45.8354 83.1136L45.7297 83.0344L49.164 82.9947L49.0628 83.0784C49.1948 82.4356 49.3401 81.7575 49.5031 81.0442V80.9826H49.5647C50.277 80.7831 50.9584 80.4868 51.5901 80.102L51.6473 80.0711L51.7002 80.102L53.4614 81.1763H53.3293C54.1394 80.3441 54.932 79.5208 55.7157 78.7062V78.8383C55.337 78.2512 54.9584 77.673 54.5797 77.1035L54.5489 77.0507L54.5753 76.9934C54.9372 76.3474 55.2112 75.6559 55.3899 74.9373V74.88H55.4515L57.4681 74.3869L57.3888 74.4881C57.3888 73.3169 57.3492 72.1722 57.3316 71.0538L57.4108 71.1463L55.3767 70.706H55.3238V70.6531C55.1221 69.9389 54.826 69.2548 54.4432 68.619L54.4168 68.5705L54.4432 68.5265C54.8131 67.9189 55.1727 67.3318 55.522 66.7653V66.8754L53.0563 64.4845H53.1575L51.3963 65.6205L51.3567 65.6425L51.3171 65.6205C50.6694 65.2577 49.9765 64.9823 49.2565 64.8015H49.2125V64.7619C49.0363 64.0266 48.8778 63.3662 48.7237 62.7453L48.7854 62.7894L45.3554 62.8378L45.3995 62.7982C45.2233 63.6083 45.0824 64.2732 44.9592 64.828C44.4184 64.9779 43.8935 65.1799 43.3917 65.4312L43.0218 65.6249L42.8986 65.6866L43.013 65.6073C43.0923 65.5589 43.2112 65.4884 43.3741 65.4004C43.8733 65.1343 44.3986 64.9204 44.9416 64.7619L44.9195 64.7883C45.0296 64.2336 45.1661 63.5643 45.329 62.7542V62.7145H45.3686L48.803 62.6397H48.8514V62.6881C49.0055 63.3089 49.1684 63.9694 49.3534 64.7003L49.3005 64.6518C50.0351 64.8309 50.7427 65.1063 51.4052 65.4708H51.3259L53.0563 64.3304L53.1135 64.2952L53.1575 64.3392L55.632 66.7169L55.6849 66.7653L55.6496 66.8269C55.2974 67.414 54.9393 68.0011 54.5753 68.5881V68.4957C54.9679 69.1433 55.2716 69.8408 55.4779 70.5695L55.4075 70.5034L57.4417 70.9437H57.5165V71.0186C57.54 72.1369 57.562 73.2817 57.5826 74.4529V74.5322L57.5033 74.5542L55.5043 75.0693L55.5792 74.9945C55.3962 75.7305 55.118 76.4395 54.7514 77.1035V76.9979L55.8874 78.7326L55.9358 78.8031L55.8742 78.8603L53.4922 81.3348L53.4349 81.392L53.3601 81.348L51.5989 80.2737H51.709C51.0589 80.6593 50.3599 80.9555 49.6307 81.1543L49.7056 81.075C49.5603 81.7751 49.415 82.4664 49.2653 83.1092V83.1885H49.164L45.7297 83.2457H45.6416V83.1665C45.4699 82.4708 45.3026 81.7839 45.1485 81.1499L45.2233 81.2247C44.4862 81.0432 43.7768 80.7633 43.1143 80.3926H43.22L41.4852 81.5241L41.4192 81.5682L41.3619 81.5153L38.8962 79.1289L38.839 79.0761L38.8786 79.01L39.9574 77.2488V77.3413C39.5726 76.6909 39.2764 75.9919 39.0768 75.2631L39.1428 75.3247L37.113 74.8844H37.047V74.8184C37.047 73.6163 37.0073 72.4672 36.9941 71.3884V71.3268H37.0514L39.068 70.8381L39.0151 70.8865C39.1994 70.1544 39.4792 69.4498 39.8473 68.7907V68.8567C39.4422 68.2271 39.0591 67.6415 38.7157 67.1175V67.0779L38.7465 67.0471L41.1462 64.5902L42.4671 65.4048C42.608 65.4972 42.718 65.5677 42.8017 65.6161L42.8942 65.6733Z" fill="#E0E0E0"/>
<path d="M143.683 90.0395C144.067 89.8074 144.48 89.6281 144.912 89.5068L145.149 88.2783L147.206 88.2387L147.501 89.4451C147.935 89.5552 148.354 89.721 148.747 89.9383L149.786 89.2558L151.265 90.6824L150.618 91.7479C150.852 92.1313 151.032 92.5445 151.155 92.9763L152.37 93.2273L152.406 95.2835L151.199 95.5785C151.093 96.0138 150.928 96.4329 150.71 96.8246L151.388 97.8637L149.993 99.3607L148.932 98.7178C148.548 98.95 148.135 99.1292 147.703 99.2506L147.448 100.466L145.396 100.505L145.097 99.299C144.662 99.1882 144.243 99.0225 143.851 98.8059L142.811 99.4884L141.332 98.0574L141.979 96.9963C141.746 96.6129 141.565 96.1996 141.442 95.7678L140.227 95.5169L140.192 93.4607L141.398 93.1657C141.505 92.7304 141.669 92.3113 141.887 91.9196L141.187 90.8805L142.613 89.4011L143.674 90.0439L143.683 90.0395ZM144.78 92.7782C144.478 93.0919 144.276 93.488 144.2 93.9163C144.123 94.3447 144.175 94.7861 144.349 95.1849C144.523 95.5837 144.812 95.9219 145.178 96.1568C145.544 96.3918 145.972 96.5129 146.407 96.5049C146.842 96.4969 147.265 96.3602 147.623 96.1119C147.98 95.8637 148.256 95.5151 148.415 95.1102C148.575 94.7053 148.61 94.2623 148.518 93.837C148.426 93.4118 148.21 93.0234 147.897 92.721C147.688 92.5199 147.442 92.362 147.173 92.2563C146.903 92.1506 146.615 92.0991 146.325 92.1048C146.036 92.1106 145.75 92.1734 145.485 92.2897C145.22 92.406 144.98 92.5735 144.78 92.7826V92.7782Z" fill="#F5F5F5"/>
<path d="M144.779 92.7826C144.895 92.6404 145.033 92.5183 145.189 92.4215C145.549 92.1889 145.969 92.0652 146.398 92.0652C146.826 92.0652 147.246 92.1889 147.606 92.4215C147.944 92.6395 148.217 92.9434 148.399 93.3021C148.497 93.4975 148.564 93.707 148.597 93.923C148.632 94.1476 148.632 94.3764 148.597 94.601C148.533 95.0792 148.318 95.5245 147.983 95.8715C147.648 96.2185 147.21 96.4491 146.734 96.5295C146.51 96.5669 146.281 96.5669 146.056 96.5295C145.84 96.5032 145.629 96.4438 145.431 96.3534C145.062 96.1854 144.745 95.9226 144.511 95.5917C144.31 95.305 144.18 94.9744 144.132 94.6274C144.056 94.1255 144.159 93.6128 144.423 93.1789C144.51 93.013 144.627 92.8639 144.766 92.7386C144.766 92.7386 144.634 92.8839 144.462 93.1789C144.229 93.6106 144.144 94.1073 144.22 94.5922C144.278 94.9472 144.423 95.2822 144.643 95.5667C144.863 95.8512 145.151 96.0762 145.48 96.2213C145.667 96.3093 145.868 96.3659 146.074 96.3886C146.287 96.4238 146.504 96.4238 146.717 96.3886C147.167 96.3127 147.58 96.0948 147.897 95.7668C148.214 95.4388 148.418 95.0179 148.478 94.5658C148.511 94.3528 148.511 94.136 148.478 93.923C148.447 93.7195 148.384 93.522 148.293 93.3374C148.126 92.9911 147.869 92.6961 147.549 92.4832C147.205 92.254 146.803 92.1274 146.39 92.118C145.977 92.1087 145.569 92.217 145.215 92.4304C144.92 92.6461 144.788 92.7958 144.779 92.7826Z" fill="#F5F5F5"/>
<path d="M143.683 90.0395C143.683 90.0395 143.661 90.0395 143.617 90.0043L143.41 89.8854L142.613 89.4143H142.635L141.217 90.9201V90.8805L141.9 91.9152V91.9372C141.683 92.3259 141.52 92.7421 141.416 93.1744V93.2009H141.389L140.183 93.5003L140.218 93.4562C140.218 94.1035 140.244 94.7771 140.258 95.5124L140.218 95.464L141.438 95.715H141.468V95.7458C141.59 96.1725 141.768 96.5811 141.997 96.961V96.9874V97.0183L141.354 98.0794V98.0089L142.838 99.4355H142.763C143.084 99.2198 143.441 98.9952 143.802 98.753L143.833 98.731H143.864C144.251 98.9468 144.666 99.1097 145.096 99.2154H145.132V99.2506L145.427 100.457L145.365 100.413L147.421 100.373L147.36 100.422C147.439 100.039 147.527 99.6248 147.615 99.2066V99.1713H147.65C148.075 99.0507 148.482 98.8745 148.861 98.6474L148.896 98.6254L148.927 98.6474L149.993 99.2902H149.913C150.393 98.7927 150.873 98.2995 151.34 97.8108V97.8901L150.662 96.851L150.64 96.8201V96.7849C150.857 96.3994 151.022 95.9861 151.129 95.5565V95.5212H151.164L152.37 95.2262L152.322 95.2835C152.322 94.5834 152.3 93.8965 152.291 93.2273L152.335 93.2845L151.12 93.0291H151.085V92.9939C150.965 92.5671 150.789 92.1583 150.561 91.7787V91.7523V91.7215L151.203 90.6603V90.7264L149.728 89.2954H149.79L148.751 89.9735H148.724C148.336 89.7549 147.92 89.5904 147.487 89.4847H147.465V89.4627C147.36 89.0224 147.263 88.6262 147.17 88.2519L147.21 88.2827L145.154 88.3091H145.18C145.074 88.7935 144.991 89.1897 144.92 89.5244C144.596 89.6154 144.28 89.7363 143.978 89.8854L143.758 90.0043C143.709 90.0307 143.683 90.0439 143.683 90.0395L143.754 89.9955C143.798 89.9647 143.872 89.9206 143.969 89.8678C144.268 89.7092 144.583 89.5809 144.907 89.4847C144.973 89.1501 145.052 88.7538 145.154 88.2651V88.2783H145.149L147.201 88.2343H147.232V88.2607C147.324 88.635 147.421 89.0312 147.531 89.4671L147.5 89.4363C147.94 89.5441 148.364 89.71 148.76 89.9294H148.711L149.75 89.247H149.781L149.808 89.2734L151.291 90.7L151.322 90.7264L151.3 90.766L150.684 91.8007V91.7435C150.918 92.1317 151.1 92.5492 151.225 92.9851L151.181 92.9455L152.401 93.1965H152.445V93.2449C152.445 93.9142 152.471 94.5966 152.485 95.3011V95.3495H152.436L151.23 95.6489L151.278 95.6005C151.169 96.0418 151.001 96.4667 150.781 96.8642V96.8025C151.01 97.1416 151.221 97.4894 151.463 97.8372L151.49 97.8813L151.459 97.9165L150.028 99.3959L149.993 99.4311L149.953 99.4047L148.887 98.7619H148.953C148.565 98.9966 148.148 99.1787 147.712 99.3034L147.756 99.255C147.668 99.6953 147.58 100.087 147.5 100.47V100.519H147.452L145.396 100.554H145.347V100.505L145.052 99.299L145.096 99.3431C144.654 99.2337 144.227 99.0664 143.828 98.8455H143.89L142.851 99.5236L142.811 99.55L142.776 99.5148L141.301 98.0882L141.266 98.0574L141.292 98.0177L141.935 96.9566V97.0139C141.7 96.6248 141.52 96.2056 141.398 95.7678L141.438 95.8074L140.222 95.5521H140.183V95.5124C140.183 94.7903 140.161 94.1035 140.152 93.4562V93.421H140.187L141.394 93.1304L141.363 93.1612C141.47 92.7222 141.638 92.3 141.86 91.9064V91.9416L141.187 90.9201C141.768 90.3213 142.252 89.8238 142.622 89.4495L143.406 89.9382C143.494 89.9911 143.56 90.0307 143.608 90.0659L143.683 90.0395Z" fill="#F5F5F5"/>
<path d="M159.82 14.5942C160.314 14.2952 160.846 14.0642 161.401 13.9073L161.727 12.3398L164.368 12.2914L164.752 13.8456C165.312 13.9838 165.851 14.1971 166.354 14.4797L167.675 13.5991L169.577 15.4351L168.749 16.8001C169.049 17.2948 169.28 17.8281 169.436 18.3851L171.004 18.711L171.048 21.3528L169.498 21.7314C169.36 22.2932 169.147 22.8338 168.864 23.3385L169.745 24.6594L167.908 26.5615L166.557 25.7558C166.058 26.0554 165.522 26.2878 164.963 26.447L164.637 28.0101L161.995 28.0585L161.617 26.5043C161.056 26.3656 160.515 26.1539 160.01 25.8746L158.689 26.7552L156.787 24.9148L157.614 23.5498C157.315 23.0562 157.084 22.5245 156.927 21.9692L155.36 21.6389L155.316 18.9971L156.87 18.6141C156.999 18.0532 157.203 17.5125 157.478 17.007L156.597 15.6861L158.433 13.7796L159.803 14.6118L159.82 14.5942ZM161.229 18.1165C160.839 18.5206 160.577 19.0313 160.477 19.584C160.378 20.1368 160.444 20.7067 160.668 21.2218C160.892 21.7369 161.264 22.174 161.736 22.4778C162.208 22.7817 162.76 22.9386 163.322 22.9287C163.884 22.9189 164.43 22.7427 164.891 22.4225C165.353 22.1023 165.709 21.6524 165.915 21.1298C166.12 20.6071 166.167 20.0352 166.047 19.4863C165.928 18.9374 165.649 18.4362 165.245 18.0461C164.702 17.5241 163.975 17.2383 163.222 17.2515C162.47 17.2647 161.753 17.5758 161.229 18.1165Z" fill="#F5F5F5"/>
<path d="M161.229 18.1166C161.379 17.9352 161.558 17.7791 161.757 17.6543C162.306 17.2981 162.961 17.1425 163.611 17.214C164.094 17.2668 164.556 17.4405 164.953 17.7191C165.351 17.9977 165.673 18.3722 165.887 18.8078C166.013 19.0593 166.1 19.3278 166.147 19.6048C166.194 19.8964 166.194 20.1937 166.147 20.4854C166.067 21.1014 165.791 21.6753 165.359 22.1225C164.928 22.5696 164.365 22.8662 163.752 22.9687C163.46 23.0157 163.163 23.0157 162.871 22.9687C162.592 22.9347 162.321 22.8574 162.066 22.7397C161.602 22.5314 161.201 22.205 160.903 21.7931C160.588 21.3407 160.409 20.8073 160.388 20.2562C160.367 19.7052 160.504 19.1597 160.784 18.6846C160.901 18.4806 161.05 18.2963 161.225 18.1386C161.225 18.1386 161.053 18.3279 160.837 18.7154C160.532 19.2693 160.42 19.9093 160.52 20.5338C160.591 20.9511 160.755 21.347 161 21.6918C161.291 22.092 161.681 22.4092 162.132 22.612C162.376 22.7188 162.634 22.79 162.898 22.8234C163.172 22.8695 163.451 22.8695 163.725 22.8234C164.307 22.7281 164.843 22.4479 165.253 22.0244C165.663 21.6009 165.925 21.0566 166.002 20.4722C166.079 19.9306 165.992 19.3783 165.751 18.8871C165.548 18.471 165.246 18.1119 164.87 17.8421C164.494 17.5723 164.057 17.4003 163.598 17.3416C162.971 17.2625 162.335 17.3958 161.793 17.7203C161.41 17.9404 161.242 18.1342 161.229 18.1166Z" fill="#F5F5F5"/>
<path d="M159.82 14.5942L159.732 14.5457L159.468 14.396L158.437 13.784H158.473L156.645 15.6949V15.6289C156.914 16.0296 157.209 16.4787 157.526 16.9498V16.9718V16.9982C157.249 17.4998 157.038 18.0357 156.901 18.5921V18.6229H156.87L155.316 19.006L155.36 18.9487C155.377 19.7853 155.395 20.6659 155.413 21.5905L155.36 21.5289L156.927 21.8547H156.967V21.8944C157.123 22.4451 157.352 22.9723 157.649 23.4618L157.671 23.497L157.649 23.5323L156.822 24.9016V24.8091L158.728 26.6452H158.636L159.956 25.7646L159.996 25.7382H160.04C160.538 26.0159 161.071 26.2262 161.625 26.3634H161.669V26.4118L162.052 27.9661L161.973 27.9044L164.615 27.856L164.536 27.9221C164.637 27.4245 164.751 26.8918 164.861 26.3546V26.3062H164.91C165.458 26.1519 165.982 25.9238 166.468 25.6281L166.508 25.6017L166.552 25.6281L167.917 26.4559H167.82L169.656 24.5538V24.655L168.776 23.3341L168.749 23.2945L168.771 23.2505C169.051 22.7531 169.261 22.2198 169.396 21.6654V21.617H169.441L170.995 21.2383L170.938 21.3132C170.92 20.4091 170.905 19.5285 170.893 18.6714L170.951 18.7418L169.388 18.416H169.344V18.372C169.19 17.8226 168.961 17.2968 168.666 16.8089L168.644 16.7693L168.666 16.734L169.498 15.3691V15.4528L167.596 13.6123H167.675L166.354 14.4929H166.323H166.292C165.793 14.2138 165.258 14.0021 164.703 13.8633H164.672V13.8325C164.536 13.2689 164.412 12.7581 164.298 12.2782L164.342 12.3134L161.7 12.3487L161.735 12.3222C161.603 12.9431 161.493 13.4582 161.401 13.8853C160.983 14.0018 160.578 14.1581 160.19 14.352L159.904 14.5017L159.811 14.5501L159.899 14.4885L160.177 14.33C160.565 14.1324 160.974 13.9774 161.396 13.8677C161.484 13.4274 161.59 12.9254 161.713 12.3002V12.2738H161.744L164.386 12.2122H164.425V12.2518C164.544 12.7317 164.672 13.2381 164.809 13.8016L164.773 13.762C165.338 13.9028 165.883 14.1159 166.394 14.396H166.332L167.653 13.5154L167.697 13.4846L167.732 13.5198L169.639 15.3559L169.678 15.3911L169.647 15.4396C169.383 15.8799 169.106 16.3202 168.824 16.8089V16.734C169.126 17.2337 169.36 17.7712 169.52 18.3323L169.467 18.2839L171.03 18.6053H171.092V18.711C171.092 19.5681 171.108 20.4487 171.14 21.3528V21.4144H171.083L169.529 21.7975L169.586 21.7402C169.446 22.3076 169.231 22.8539 168.947 23.365V23.2813C169.238 23.7216 169.529 24.1619 169.828 24.6022L169.863 24.6594L169.815 24.7035L167.983 26.6364L167.939 26.6804L167.882 26.6496L166.517 25.8174H166.601C166.098 26.1165 165.559 26.3502 164.998 26.5131L165.055 26.4515C164.945 26.9886 164.831 27.5214 164.729 28.0145V28.0806H164.663L162.021 28.1246H161.96V28.063C161.832 27.5302 161.7 26.9974 161.581 26.5087L161.638 26.5703C161.071 26.4284 160.525 26.2123 160.014 25.9275H160.097L158.776 26.8081L158.724 26.8433L158.68 26.7993L156.777 24.9588L156.738 24.9192L156.769 24.8708L157.601 23.5058V23.5763C157.303 23.0751 157.071 22.538 156.91 21.978L156.962 22.022L155.395 21.6962H155.347V21.6478C155.347 20.7188 155.316 19.8337 155.307 19.006V18.9576H155.355L156.91 18.5789L156.87 18.6185C157.011 18.0537 157.228 17.5103 157.513 17.0026V17.0511L156.632 15.7302V15.7037L156.597 15.6289L158.446 13.7356L159.455 14.3652L159.714 14.5281L159.82 14.5942Z" fill="#F5F5F5"/>
<path d="M116.627 26.3193C117.012 26.0879 117.427 25.9087 117.859 25.7866L118.11 24.5713L120.167 24.5317L120.462 25.7381C120.896 25.8482 121.315 26.014 121.708 26.2313L122.747 25.5488L124.226 26.9754L123.575 28.0409C123.809 28.4277 123.991 28.8437 124.116 29.2781L125.331 29.5291L125.367 31.5853L124.16 31.8803C124.054 32.3156 123.889 32.7347 123.671 33.1264L124.354 34.1655L122.923 35.6449L121.862 35.002C121.478 35.2342 121.065 35.4134 120.633 35.5348L120.382 36.75L118.326 36.7897L118.031 35.5832C117.595 35.4724 117.175 35.3067 116.781 35.0901L115.746 35.7726L114.267 34.346L114.909 33.2805C114.677 32.8969 114.498 32.4837 114.377 32.052L113.157 31.8011L113.122 29.7184L114.328 29.4234C114.434 28.9873 114.6 28.568 114.821 28.1774L114.139 27.1383L115.565 25.6589L116.627 26.3017V26.3193ZM117.723 29.058C117.421 29.3717 117.22 29.7678 117.143 30.1961C117.066 30.6245 117.119 31.0659 117.293 31.4647C117.467 31.8635 117.755 32.2017 118.122 32.4366C118.488 32.6716 118.916 32.7927 119.351 32.7847C119.786 32.7767 120.209 32.64 120.566 32.3917C120.923 32.1435 121.199 31.7949 121.359 31.39C121.518 30.9851 121.554 30.5421 121.462 30.1168C121.369 29.6916 121.153 29.3032 120.84 29.0008C120.632 28.7994 120.386 28.6412 120.117 28.5351C119.847 28.429 119.559 28.3771 119.27 28.3824C118.98 28.3878 118.694 28.4502 118.429 28.5661C118.164 28.682 117.924 28.8492 117.723 29.058Z" fill="#F5F5F5"/>
<path d="M117.723 29.058C117.839 28.9151 117.979 28.7931 118.137 28.697C118.495 28.4621 118.915 28.337 119.343 28.337C119.772 28.337 120.191 28.4621 120.55 28.697C120.887 28.915 121.161 29.2189 121.342 29.5776C121.44 29.7729 121.507 29.9824 121.54 30.1984C121.578 30.4229 121.578 30.652 121.54 30.8765C121.477 31.3539 121.263 31.7984 120.928 32.1445C120.592 32.4921 120.154 32.7235 119.678 32.805C119.453 32.8424 119.224 32.8424 119 32.805C118.784 32.7787 118.573 32.7193 118.374 32.6289C118.007 32.4608 117.691 32.1979 117.459 31.8672C117.257 31.5803 117.126 31.2499 117.076 30.9029C117.003 30.401 117.105 29.8893 117.366 29.4543C117.454 29.2884 117.57 29.1394 117.71 29.014C117.71 29.014 117.578 29.1593 117.406 29.4543C117.171 29.884 117.085 30.3798 117.164 30.8633C117.219 31.1934 117.348 31.5066 117.542 31.7791C117.765 32.0934 118.069 32.3402 118.423 32.4924C118.611 32.5798 118.811 32.6363 119.017 32.6597C119.23 32.6948 119.447 32.6948 119.66 32.6597C120.111 32.5858 120.525 32.3685 120.843 32.0401C121.16 31.7117 121.363 31.2897 121.421 30.8369C121.459 30.6242 121.459 30.4067 121.421 30.194C121.392 29.9901 121.329 29.7923 121.236 29.6084C121.079 29.2849 120.844 29.0056 120.552 28.7958C120.26 28.5859 119.92 28.4521 119.563 28.4064C119.075 28.3451 118.581 28.4489 118.159 28.7014C117.851 28.9216 117.736 29.0713 117.723 29.058Z" fill="#F5F5F5"/>
<path d="M116.627 26.3194C116.627 26.3194 116.605 26.3194 116.561 26.2841L116.358 26.1652L115.557 25.6941H115.583L114.161 27.1823V27.1427L114.848 28.1774C114.633 28.567 114.47 28.9829 114.363 29.4147V29.4411H114.328L113.122 29.7405L113.153 29.6965C113.153 30.3437 113.179 31.0174 113.197 31.7527L113.157 31.7042L114.372 31.9552H114.403V31.986C114.526 32.4128 114.705 32.8214 114.936 33.2012V33.2277V33.2585C114.733 33.5887 114.496 33.9497 114.293 34.3196V34.2492L115.772 35.6757H115.698L116.737 34.9933H116.768H116.798C117.186 35.2083 117.601 35.3712 118.031 35.4776H118.066V35.5128L118.361 36.7192L118.304 36.6752L120.356 36.6356L120.299 36.684C120.378 36.3009 120.462 35.8871 120.55 35.4688V35.4336H120.585C121.01 35.3129 121.417 35.1368 121.796 34.9096H121.827H121.862L122.923 35.5524H122.844C123.328 35.0534 123.804 34.5603 124.27 34.073V34.1523L123.588 33.1132L123.566 33.0824L123.588 33.0515C123.801 32.6631 123.964 32.2487 124.072 31.8187V31.7835H124.107L125.314 31.4885L125.27 31.5457C125.27 30.8456 125.248 30.1588 125.235 29.4939L125.279 29.5467L124.063 29.2914H124.032V29.2562C123.912 28.8291 123.734 28.4204 123.504 28.0409V28.0145V27.9837L124.151 26.9226V26.9886L122.694 25.5841H122.756L121.717 26.2621H121.695H121.668C121.281 26.0443 120.866 25.8799 120.435 25.7734H120.409V25.7558C120.303 25.3155 120.206 24.9192 120.118 24.5449L120.153 24.5758L118.097 24.6022L118.124 24.5802C118.022 25.0645 117.934 25.4608 117.864 25.7954C117.54 25.8872 117.224 26.0081 116.922 26.1564L116.702 26.2753C116.653 26.3017 116.627 26.3149 116.627 26.3105L116.697 26.2665C116.746 26.2357 116.816 26.1917 116.913 26.1388C117.212 25.9803 117.526 25.8519 117.851 25.7558C117.917 25.4211 117.996 25.0249 118.097 24.5361V24.5141L120.153 24.4701H120.18V24.4965C120.272 24.8708 120.369 25.267 120.479 25.7029L120.448 25.6721C120.897 25.7878 121.328 25.9641 121.73 26.1961H121.686L122.72 25.5136H122.751L122.782 25.54L124.261 26.9666L124.292 26.993L124.27 27.0326L123.627 28.0938V28.0365C123.862 28.4248 124.044 28.8423 124.169 29.2782L124.129 29.2385L125.345 29.4895H125.389V29.5379C125.389 30.2072 125.415 30.8897 125.428 31.5941V31.6426H125.384L124.178 31.942L124.222 31.8979C124.113 32.3382 123.946 32.7618 123.724 33.1572V33.0956L124.402 34.1303L124.433 34.1743L124.398 34.2095L122.971 35.6889L122.936 35.7242L122.892 35.6977L121.813 35.0461H121.875C121.487 35.2809 121.069 35.463 120.633 35.5877L120.677 35.5392C120.589 35.9795 120.506 36.3714 120.426 36.7545V36.8029H120.378L118.322 36.8381H118.291V36.7897L117.996 35.5833L118.04 35.6273C117.6 35.5184 117.176 35.3511 116.781 35.1298H116.842L115.803 35.8078L115.764 35.8342L115.728 35.799L114.253 34.3724L114.218 34.3416L114.245 34.302L114.887 33.2409V33.2981C114.655 32.9081 114.474 32.4892 114.35 32.0521L114.39 32.0917L113.175 31.8363H113.135V31.7967C113.135 31.0746 113.113 30.3877 113.104 29.7405V29.7185H113.139L114.346 29.4279L114.315 29.4587C114.407 29.0128 114.559 28.5816 114.769 28.1774V28.2126C114.522 27.8384 114.297 27.4861 114.091 27.1735C114.676 26.5747 115.156 26.0772 115.526 25.7029L116.305 26.1917C116.393 26.2445 116.459 26.2841 116.508 26.3194H116.627Z" fill="#F5F5F5"/>
<path d="M22.4552 62.5648C22.8388 62.3327 23.252 62.1534 23.6837 62.0321L23.9346 60.8168L25.9908 60.7816L26.2858 61.988C26.7211 62.0946 27.1402 62.259 27.5319 62.4768L28.571 61.7943L30.0504 63.2253L29.4076 64.2864C29.6397 64.67 29.819 65.0832 29.9403 65.5148L31.1556 65.7658L31.1908 67.822L29.9844 68.117C29.8763 68.5462 29.7119 68.9593 29.4956 69.3454L30.1781 70.3846L28.7471 71.864L27.686 71.2211C27.3024 71.4533 26.8892 71.6325 26.4576 71.7539L26.2066 72.9735L24.1504 73.0087L23.8554 71.8023C23.4199 71.6942 23.0009 71.5283 22.6093 71.3092L21.5702 71.9916L20.104 70.5827L20.7469 69.5172C20.5147 69.1336 20.3355 68.7204 20.2141 68.2887L18.9813 68.0245L18.946 65.9683L20.1525 65.6733C20.2606 65.2379 20.4265 64.8188 20.6456 64.4273L19.9631 63.3882L21.3897 61.9088L22.4552 62.5516V62.5648ZM23.5472 65.3035C23.2452 65.6168 23.0428 66.0126 22.9656 66.4408C22.8884 66.8691 22.9399 67.3106 23.1134 67.7096C23.287 68.1086 23.575 68.4473 23.9409 68.6827C24.3069 68.9182 24.7344 69.0399 25.1695 69.0325C25.6046 69.0252 26.0277 68.889 26.3855 68.6413C26.7432 68.3936 27.0195 68.0454 27.1795 67.6407C27.3395 67.236 27.3759 66.793 27.2843 66.3676C27.1926 65.9422 26.9769 65.5535 26.6645 65.2507C26.4565 65.0491 26.2109 64.8905 25.9415 64.784C25.6722 64.6775 25.3845 64.6253 25.0949 64.6302C24.8053 64.6351 24.5195 64.6971 24.2539 64.8126C23.9884 64.9282 23.7482 65.095 23.5472 65.3035Z" fill="#F5F5F5"/>
<path d="M23.5471 65.3035C23.6653 65.1622 23.805 65.0404 23.961 64.9425C24.3195 64.7076 24.7388 64.5825 25.1674 64.5825C25.596 64.5825 26.0153 64.7076 26.3738 64.9425C26.7115 65.1604 26.9851 65.4644 27.1664 65.8231C27.2644 66.0184 27.3313 66.2279 27.3645 66.4439C27.402 66.6683 27.402 66.8975 27.3645 67.1219C27.3017 67.6006 27.0872 68.0465 26.7525 68.3944C26.416 68.7381 25.9802 68.9675 25.5064 69.0505C25.2805 69.0878 25.0499 69.0878 24.824 69.0505C24.6078 69.0241 24.3969 68.9647 24.1987 68.8743C23.8512 68.7209 23.5479 68.4824 23.317 68.1807C23.0862 67.879 22.9351 67.5239 22.8778 67.1484C22.8049 66.6464 22.9076 66.1347 23.1684 65.6998C23.256 65.5339 23.3723 65.3848 23.5119 65.2595C23.5119 65.2595 23.3798 65.4048 23.2125 65.6998C23.0646 65.963 22.9733 66.2542 22.9446 66.5548C22.9159 66.8554 22.9503 67.1586 23.0456 67.4451C23.141 67.7316 23.2952 67.9949 23.4983 68.2183C23.7014 68.4417 23.949 68.6202 24.2252 68.7422C24.4139 68.8262 24.6143 68.8812 24.8196 68.9052C25.0324 68.9403 25.2496 68.9403 25.4624 68.9052C25.913 68.8312 26.3277 68.6139 26.645 68.2855C26.9623 67.9571 27.1652 67.5352 27.2236 67.0823C27.261 66.8697 27.261 66.6521 27.2236 66.4395C27.1942 66.2355 27.1317 66.0377 27.0387 65.8539C26.8815 65.5304 26.6462 65.2511 26.3541 65.0412C26.062 64.8314 25.7223 64.6976 25.3655 64.6519C24.879 64.5915 24.3862 64.6954 23.9654 64.9469C23.688 65.167 23.5603 65.3167 23.5471 65.3035Z" fill="#F5F5F5"/>
<path d="M22.4553 62.5648C22.4553 62.5648 22.4289 62.5648 22.3849 62.5296L22.1823 62.4107L21.381 61.9396H21.425L20.0028 63.4278V63.3882L20.6897 64.4229V64.4449C20.4746 64.8337 20.3132 65.2499 20.2098 65.6821V65.7085L19.0034 66.0079L19.0386 65.9639C19.0386 66.6112 19.065 67.2848 19.0782 68.0201L19.0386 67.9717L20.2538 68.2227H20.2846V68.2535C20.4079 68.6803 20.587 69.0889 20.8174 69.4687V69.4951V69.5259L20.1746 70.5871V70.5166L21.6099 71.9872H21.5351L22.5742 71.3048H22.605H22.6358C23.024 71.5191 23.4384 71.6819 23.8687 71.7891H23.9039V71.8243C23.9964 72.203 24.0976 72.6168 24.2033 73.0307L24.1417 72.9867L26.1935 72.9471L26.1362 72.9999C26.2155 72.6124 26.2991 72.1986 26.3872 71.7803V71.7451H26.4224C26.8484 71.6237 27.2569 71.4476 27.6376 71.2211L27.6685 71.1991L27.7037 71.2211L28.7648 71.8639H28.6856L30.1121 70.3889V70.4638L29.4297 69.4247V69.3939V69.363C29.6433 68.9746 29.8061 68.5602 29.914 68.1302V68.095H29.9492L31.1556 67.8L31.1116 67.8572C31.1116 67.1571 31.1116 66.4703 31.0764 65.8054L31.1248 65.8582L29.9052 65.6029H29.8744V65.5676C29.7537 65.1406 29.576 64.7319 29.346 64.3524V64.326V64.2952L30.0065 63.1812V63.2473C29.4869 62.7453 28.9952 62.2683 28.5314 61.8163H28.5887L27.5496 62.4944H27.5276H27.5011C27.1141 62.2766 26.6994 62.1122 26.2683 62.0056H26.2419V61.9836L25.9513 60.7772L25.9865 60.8036L23.9303 60.83L23.9567 60.808C23.8555 61.2923 23.7674 61.6886 23.697 62.0232C23.3728 62.1131 23.0586 62.2356 22.7591 62.3887L22.5346 62.5032C22.4861 62.5296 22.4641 62.5428 22.4641 62.5384L22.5302 62.4944C22.5786 62.4635 22.649 62.4195 22.7459 62.3667C23.0453 62.2099 23.3595 62.0831 23.6837 61.988C23.7498 61.6578 23.8335 61.2571 23.9303 60.7684V60.7464L25.9865 60.7023H26.0129V60.7332C26.1054 61.103 26.2023 61.4993 26.3123 61.9352L26.2815 61.9044C26.7213 62.0122 27.1447 62.178 27.5408 62.3975H27.4967L28.5314 61.715H28.5623L28.5931 61.7414L30.0857 63.1812L30.1165 63.212V63.2473L29.4737 64.3084V64.2511C29.7115 64.6376 29.8938 65.0556 30.0153 65.4928L29.9756 65.4532L31.1909 65.7041H31.2349V65.7482C31.2349 66.4174 31.2569 67.1043 31.2701 67.8044V67.8528H31.2261L30.0197 68.1522L30.0637 68.1082C29.9553 68.5484 29.7879 68.972 29.5662 69.3674V69.3454L30.231 70.3713L30.2574 70.4109L30.2222 70.4462L28.7956 71.9256L28.7604 71.9608L28.7164 71.9344L27.6553 71.2915H27.7169C27.3288 71.5263 26.9113 71.7084 26.4752 71.8331L26.5193 71.7847C26.4312 72.225 26.3476 72.6168 26.2683 72.9999V73.0527H26.2199L24.1637 73.088H24.1152V73.0395L23.8202 71.8331L23.8643 71.8771C23.4242 71.7683 23.0007 71.6009 22.605 71.3796H22.6667L21.6275 72.0577L21.5879 72.0841L21.5527 72.0489L20.0777 70.6223L20.0469 70.5915V70.5518L20.6897 69.4907V69.548C20.4576 69.1591 20.277 68.7417 20.1525 68.3063L20.1922 68.3415L18.9769 68.0862H18.9373V68.0245C18.9373 67.3024 18.9153 66.6156 18.9065 65.9683V65.9331H18.9417L20.1481 65.6425L20.1173 65.6733C20.2277 65.2351 20.395 64.8133 20.6149 64.4185V64.4537L19.9368 63.4146L21.3722 61.944L22.1515 62.4327L22.354 62.5604L22.4553 62.5648Z" fill="#F5F5F5"/>
<path d="M37.4299 127.694L36.4965 123.881C35.1123 123.542 33.7796 123.019 32.5338 122.327L29.2403 124.489L24.5599 119.94L26.5941 116.581C25.8627 115.367 25.2956 114.061 24.9078 112.697L21.0508 111.892L20.9363 105.371L24.7537 104.433C25.0923 103.049 25.6135 101.717 26.3035 100.47L24.1461 97.1768L28.6768 92.4832L32.0362 94.5218C33.25 93.7895 34.556 93.2224 35.9197 92.8354L36.721 88.9784L43.2419 88.8639L44.1753 92.6813C45.56 93.0172 46.8929 93.5385 48.138 94.2312L51.4314 92.0693L56.1471 96.644L54.1129 100.004C54.8459 101.218 55.4131 102.526 55.7992 103.891L59.6562 104.693L59.7707 111.214L55.9533 112.151C55.6155 113.535 55.0942 114.868 54.4035 116.114L56.5609 119.408L52.0303 124.101L48.6708 122.063C47.4562 122.794 46.1505 123.363 44.7873 123.753L43.986 127.606L37.4299 127.694ZM32.5514 122.296C33.7964 122.99 35.1293 123.513 36.5141 123.85L37.4519 127.663L43.9463 127.553L44.7477 123.7C46.115 123.314 47.4242 122.745 48.6399 122.01L51.995 124.044L56.5081 119.372L54.3506 116.083C55.0421 114.837 55.5648 113.505 55.9049 112.121L59.7311 111.174L59.6166 104.679L55.7684 103.896C55.378 102.53 54.8096 101.221 54.0776 100.004L56.1206 96.644L51.4491 92.1309L48.16 94.2884C46.915 93.5945 45.5821 93.0717 44.1973 92.7342L43.2595 88.9212L36.7651 89.0356L35.9549 92.8618C34.5876 93.2484 33.2784 93.8171 32.0627 94.5526L28.7032 92.5184L24.1857 97.19L26.3432 100.479C25.652 101.725 25.1307 103.058 24.7933 104.442L20.9847 105.375L21.0992 111.87L24.9474 112.671C25.3386 114.037 25.907 115.345 26.6382 116.563L24.604 119.923L29.2756 124.431L32.5514 122.296ZM40.556 115.071C39.1818 115.071 37.8378 114.667 36.6914 113.909C35.5451 113.151 34.6472 112.073 34.1097 110.808C33.5722 109.543 33.4188 108.148 33.6686 106.797C33.9184 105.446 34.5604 104.198 35.5146 103.209C36.1523 102.546 36.9148 102.017 37.7581 101.65C38.6014 101.284 39.5089 101.088 40.4284 101.073H40.556C42.4116 101.058 44.1974 101.78 45.5206 103.081C46.8438 104.382 47.5961 106.155 47.6118 108.01C47.6276 109.866 46.9056 111.652 45.6047 112.975C44.3038 114.298 42.5305 115.05 40.6749 115.066L40.556 115.071ZM40.556 101.1C39.6257 101.076 38.7001 101.24 37.8337 101.579C36.9674 101.919 36.1778 102.429 35.5116 103.079C34.8453 103.729 34.3158 104.505 33.9543 105.363C33.5927 106.22 33.4065 107.141 33.4065 108.072C33.4065 109.003 33.5927 109.924 33.9543 110.781C34.3158 111.639 34.8453 112.415 35.5116 113.065C36.1778 113.715 36.9674 114.225 37.8337 114.565C38.7001 114.904 39.6257 115.068 40.556 115.044H40.6837C42.5041 114.985 44.2292 114.217 45.4902 112.902C46.7513 111.588 47.4482 109.833 47.4321 108.012C47.416 106.191 46.6881 104.448 45.4041 103.156C44.12 101.865 42.3816 101.127 40.5604 101.1H40.556Z" fill="#E0E0E0"/>
<path d="M35.5146 103.218C35.8882 102.767 36.3347 102.381 36.8355 102.077C38.1838 101.201 39.7945 100.82 41.3926 100.999C42.5812 101.127 43.718 101.554 44.6972 102.24C45.6764 102.926 46.4662 103.849 46.9932 104.922C47.3047 105.538 47.52 106.199 47.6317 106.881C47.7573 107.592 47.7707 108.319 47.6713 109.034C47.472 110.549 46.7909 111.96 45.7286 113.059C44.6663 114.158 43.279 114.886 41.7713 115.137C41.0619 115.266 40.3362 115.28 39.6226 115.176C38.9356 115.089 38.266 114.898 37.6369 114.608C36.4714 114.08 35.4682 113.25 34.7309 112.204C34.0895 111.287 33.6745 110.231 33.5201 109.122C33.2963 107.545 33.6195 105.938 34.4359 104.569C34.7269 104.072 35.0972 103.626 35.5322 103.249C35.5718 103.279 35.0919 103.689 34.5724 104.666C33.8235 106.03 33.5523 107.604 33.8018 109.14C33.9889 110.257 34.4516 111.31 35.1482 112.203C35.8447 113.097 36.753 113.802 37.791 114.256C38.3866 114.528 39.0208 114.707 39.671 114.784C40.3473 114.875 41.0335 114.86 41.7052 114.74C43.1282 114.5 44.4368 113.81 45.4397 112.772C46.4427 111.734 47.0873 110.403 47.2794 108.972C47.4628 107.641 47.2484 106.285 46.663 105.076C46.1692 104.052 45.4272 103.167 44.5044 102.503C43.5817 101.838 42.5074 101.415 41.3794 101.272C39.8364 101.077 38.2726 101.404 36.9368 102.201C35.9769 102.782 35.5674 103.249 35.5146 103.218Z" fill="#EBEBEB"/>
<path d="M32.0627 94.5438C31.9871 94.51 31.9136 94.4718 31.8425 94.4293L31.1997 94.0551L28.6635 92.5581H28.7428L24.2473 97.2605V97.1328L26.4136 100.413L26.4532 100.475L26.418 100.536C25.7374 101.772 25.2237 103.093 24.8902 104.464V104.539H24.8109L20.9847 105.507L21.0948 105.366C21.1344 107.414 21.1784 109.593 21.2225 111.878L21.0992 111.724L24.9474 112.521H25.0443L25.0707 112.618C25.4567 113.972 26.0224 115.267 26.7526 116.471L26.8055 116.559L26.7526 116.647L24.7185 120.015L24.6876 119.795L29.3812 124.312L29.1479 124.29L32.4325 122.146L32.5294 122.085L32.6306 122.142C33.8582 122.821 35.1698 123.336 36.5317 123.674L36.6462 123.7L36.677 123.815C36.9676 125.013 37.289 126.32 37.6148 127.637L37.4211 127.487L43.9331 127.373L43.7394 127.531C43.9948 126.311 44.2678 124.999 44.5408 123.674L44.5672 123.555L44.6817 123.524C46.0314 123.141 47.3241 122.58 48.5255 121.856L48.6311 121.794L48.7324 121.856L52.0963 123.899L51.8497 123.929L56.3716 119.245V119.491L54.2185 116.198L54.1525 116.101L54.2097 115.995C54.8947 114.77 55.4115 113.458 55.7464 112.094L55.7772 111.98L55.8917 111.953L59.7135 111.02L59.5682 111.209C59.533 108.986 59.4933 106.806 59.4625 104.697L59.6078 104.873L55.7684 104.063L55.6627 104.041L55.6319 103.935C55.2494 102.583 54.6882 101.287 53.9632 100.083L53.9103 99.9903L53.9632 99.9023C54.6618 98.7487 55.3442 97.6289 56.0106 96.5428L56.037 96.7453L51.3654 92.2146H51.5547L48.2569 94.3633L48.1864 94.4117L48.1116 94.3677C46.8818 93.6789 45.5653 93.1576 44.1973 92.8178H44.1181V92.743C43.7834 91.3516 43.4796 90.1012 43.1934 88.9168L43.3123 89.0048L36.8003 89.0929L36.8839 89.0181C36.5537 90.5547 36.2851 91.8184 36.0606 92.8663V92.9059H36.021C34.9937 93.189 33.9968 93.5725 33.0445 94.0507L32.3445 94.4161C32.2701 94.4621 32.192 94.5019 32.1111 94.535C32.18 94.4809 32.2521 94.4309 32.3268 94.3853C32.4765 94.2972 32.7011 94.1564 33.0137 93.989C33.9602 93.4844 34.9561 93.0787 35.9857 92.7782L35.9417 92.831C36.153 91.7743 36.4084 90.5107 36.7166 88.9696V88.8992H36.7871L43.2991 88.7539H43.3916L43.4136 88.8463C43.7086 90.0263 44.0212 91.2768 44.3646 92.6637L44.2678 92.5713C45.6613 92.9078 47.003 93.4306 48.2569 94.1255H48.1116L51.3654 91.9769L51.4667 91.9064L51.5547 91.9945L56.2483 96.5076L56.3452 96.6L56.2747 96.7145L54.2406 100.083V99.9023C54.9886 101.131 55.5662 102.455 55.9577 103.839L55.8212 103.711L59.6783 104.508L59.8236 104.539V104.684C59.8647 106.803 59.9058 108.974 59.9468 111.196V111.35L59.8015 111.385L55.9797 112.323L56.1206 112.182C55.7772 113.58 55.2486 114.926 54.5488 116.185V115.982L56.7062 119.271L56.7943 119.403L56.6842 119.518L52.1623 124.202L52.0523 124.317L51.9158 124.233L48.5431 122.181H48.7456C47.5067 122.925 46.174 123.499 44.7829 123.89L44.9238 123.74C44.6508 125.061 44.3778 126.382 44.1225 127.593L44.0917 127.747H43.9287L37.4211 127.857H37.2758L37.2362 127.703C36.9148 126.382 36.5977 125.061 36.3027 123.881L36.4436 124.022C35.0481 123.677 33.705 123.147 32.4501 122.446H32.6439L29.3504 124.621L29.2271 124.7L29.1215 124.599L24.4499 120.068L24.3486 119.971L24.4191 119.848L26.4664 116.488V116.664C25.7255 115.434 25.1524 114.11 24.7625 112.728L24.8858 112.843L21.0331 112.055L20.9099 112.028V111.905C20.8746 109.62 20.8394 107.445 20.8086 105.393V105.278L20.9187 105.252L24.7449 104.323L24.648 104.42C24.9955 103.034 25.5271 101.701 26.2287 100.457V100.58C25.4538 99.3915 24.7317 98.2776 24.0844 97.2781L24.0404 97.212L24.0976 97.1548L28.6459 92.492L28.6812 92.4568L28.7252 92.4832L31.2041 94.0243L31.8425 94.4293C31.918 94.4634 31.9915 94.5016 32.0627 94.5438Z" fill="#EBEBEB"/>
<path d="M144.339 28.8379C145.296 28.8567 146.245 29.0048 147.162 29.2782L149.002 27.3717L152.749 29.6436L151.908 32.1533C152.572 32.8419 153.14 33.6164 153.599 34.4561L156.24 34.4077L157.284 38.6654L154.92 39.8454C154.901 40.8031 154.753 41.754 154.479 42.6721L156.386 44.5081L154.114 48.2551L151.604 47.4185C150.914 48.0797 150.14 48.6467 149.301 49.1049L149.345 51.7467L145.092 52.7902L143.912 50.4126C142.956 50.3912 142.007 50.2432 141.09 49.9723L139.254 51.8744L135.507 49.6024L136.343 47.0927C135.681 46.4039 135.114 45.6294 134.657 44.7899L132.015 44.8384L130.976 40.5807L133.34 39.4007C133.364 38.4447 133.512 37.4959 133.781 36.5783L131.874 34.7379L134.142 31.0085L136.656 31.8495C137.341 31.1853 138.113 30.6165 138.95 30.1588L138.901 27.517L143.155 26.4734L144.339 28.8379ZM143.203 35.0021C142.301 35.2231 141.484 35.7068 140.856 36.3921C140.228 37.0774 139.818 37.9335 139.677 38.852C139.536 39.7705 139.67 40.7102 140.063 41.5523C140.457 42.3944 141.09 43.101 141.885 43.5827C142.68 44.0645 143.6 44.2997 144.528 44.2587C145.456 44.2177 146.352 43.9022 147.101 43.3523C147.85 42.8023 148.419 42.0426 148.736 41.1691C149.054 40.2956 149.105 39.3477 148.883 38.4452C148.586 37.2356 147.821 36.1934 146.756 35.5478C145.691 34.9021 144.413 34.7058 143.203 35.0021Z" fill="#E0E0E0"/>
<path d="M143.203 35.0021C143.573 34.8771 143.962 34.8146 144.352 34.8172C145.434 34.8051 146.486 35.1658 147.333 35.8387C147.921 36.3096 148.389 36.9131 148.698 37.5999C149.058 38.3829 149.2 39.2481 149.112 40.1052C149.066 40.5604 148.95 41.0059 148.768 41.4261C148.588 41.8767 148.336 42.2947 148.02 42.6633C147.364 43.4563 146.471 44.0169 145.471 44.262C144.472 44.507 143.42 44.4235 142.472 44.0238C141.594 43.6614 140.843 43.0489 140.31 42.2626C139.865 41.5922 139.596 40.8201 139.529 40.0179C139.462 39.2158 139.599 38.4097 139.927 37.6747C140.365 36.6862 141.132 35.8801 142.098 35.3939C142.443 35.2092 142.816 35.0842 143.203 35.0241C142.844 35.1533 142.491 35.3002 142.146 35.4644C141.231 35.971 140.512 36.7692 140.103 37.7319C139.802 38.4366 139.682 39.2055 139.754 39.9685C139.827 40.7315 140.089 41.4642 140.517 42.0997C140.76 42.4678 141.057 42.7973 141.398 43.0772C141.752 43.3705 142.148 43.6081 142.573 43.7817C143.471 44.1535 144.463 44.2293 145.406 43.998C146.349 43.7668 147.194 43.2406 147.817 42.496C148.116 42.1477 148.357 41.7538 148.531 41.3292C148.705 40.9241 148.818 40.4952 148.865 40.0567C148.954 39.2426 148.826 38.4195 148.495 37.6703C148.203 37.0176 147.763 36.4418 147.21 35.9884C146.403 35.3241 145.397 34.949 144.352 34.9228C143.968 34.9279 143.584 34.9543 143.203 35.0021Z" fill="#E0E0E0"/>
<path d="M144.339 28.8379C144.307 28.7919 144.279 28.7433 144.255 28.6926C144.198 28.5869 144.123 28.4372 144.022 28.2523C143.815 27.8428 143.511 27.2528 143.119 26.4911H143.168L138.919 27.561L138.985 27.517C138.985 28.3183 139.02 29.2077 139.042 30.1588V30.2028L138.998 30.2292C138.168 30.6857 137.402 31.2513 136.722 31.9112L136.682 31.9508H136.629L134.115 31.1186L134.23 31.079L131.94 34.8083V34.6806L133.851 36.5167L133.9 36.5607L133.878 36.6268C133.609 37.5338 133.461 38.4724 133.437 39.4183V39.4887L133.371 39.5195L131.007 40.7083L131.068 40.5719C131.399 41.8928 131.755 43.3501 132.116 44.8251L131.993 44.7283L134.635 44.6798H134.714L134.749 44.7459C135.201 45.5757 135.764 46.34 136.423 47.0178L136.475 47.0751L136.449 47.1499C136.189 47.9381 135.903 48.7967 135.612 49.664L135.555 49.5099L139.302 51.7775L139.139 51.7995L140.975 49.8974L141.032 49.8358L141.112 49.8578C142.015 50.1281 142.951 50.2762 143.894 50.2981H143.982L144.018 50.3729C144.414 51.1655 144.81 51.958 145.198 52.7417L145.048 52.6713L149.301 51.6278L149.2 51.7599C149.2 50.8793 149.169 49.9987 149.156 49.1181V49.0388L149.226 48.9992C150.057 48.548 150.823 47.9867 151.503 47.3305L151.56 47.2776L151.635 47.2996L154.145 48.1406L153.995 48.1978C154.773 46.921 155.532 45.6735 156.271 44.4553V44.605L154.396 42.7513L154.343 42.7029L154.365 42.6325C154.633 41.7253 154.781 40.7868 154.805 39.841V39.7705L154.867 39.7397L157.236 38.5597L157.178 38.6874C156.817 37.1904 156.474 35.777 156.144 34.4297L156.245 34.5089L153.603 34.5486H153.546L153.519 34.5001C153.066 33.6668 152.505 32.8969 151.851 32.2106L151.811 32.1709V32.1225L152.656 29.6128L152.692 29.7053L148.958 27.4201H149.033L147.179 29.3134H147.153C146.467 29.0977 145.762 28.9502 145.048 28.8731L144.52 28.8335C144.461 28.8388 144.402 28.8388 144.344 28.8335C144.402 28.8297 144.461 28.8297 144.52 28.8335C144.639 28.8335 144.815 28.8335 145.052 28.8335C145.772 28.8858 146.485 29.0127 147.179 29.2121H147.135L148.962 27.2924L148.993 27.2572L149.037 27.2836L152.793 29.5379L152.846 29.5732V29.6348C152.586 30.4097 152.317 31.2331 152.014 32.1489V32.0565C152.684 32.7489 153.258 33.5278 153.722 34.3724L153.638 34.324L156.28 34.2712H156.359L156.381 34.3504C156.712 35.6713 157.064 37.1067 157.434 38.6037V38.6918L157.354 38.7314L154.99 39.9158L155.056 39.8145C155.037 40.7809 154.888 41.7404 154.616 42.6677L154.581 42.5488L156.491 44.3848L156.562 44.4553L156.509 44.539C155.775 45.7601 155.019 47.009 154.241 48.2859L154.189 48.374L154.092 48.3431L151.578 47.5066L151.71 47.4758C151.012 48.1466 150.229 48.7225 149.381 49.1885L149.451 49.0696C149.451 49.9502 149.482 50.8308 149.499 51.7114V51.8171L149.398 51.8435L145.149 52.9223L145.048 52.9487L145 52.8518C144.609 52.0681 144.214 51.2785 143.815 50.483L143.934 50.5579C142.968 50.5383 142.008 50.3903 141.081 50.1176L141.213 50.0823L139.373 51.9844L139.302 52.0637L139.21 52.0064L135.463 49.7345L135.375 49.6817L135.405 49.5804C135.696 48.6998 135.987 47.8544 136.246 47.0707L136.277 47.2028C135.606 46.5044 135.032 45.7196 134.569 44.8692L134.683 44.9352L132.042 44.9793H131.94L131.918 44.8824L130.879 40.6247V40.5322L130.963 40.4882L133.336 39.3082L133.27 39.4095C133.291 38.4446 133.439 37.4868 133.71 36.5607L133.741 36.6708C133.076 36.028 132.42 35.3983 131.839 34.8259L131.777 34.7687L131.821 34.6939L134.102 30.9557L134.142 30.8897L134.212 30.9161L136.722 31.7615H136.634C137.33 31.0961 138.112 30.526 138.959 30.0663L138.919 30.1367C138.919 29.1857 138.893 28.2919 138.884 27.4949V27.4421H138.937L143.199 26.425H143.234V26.4558L144.093 28.217L144.308 28.6573C144.317 28.7806 144.339 28.8379 144.339 28.8379Z" fill="#E0E0E0"/>
<path d="M156.628 112.283C157.001 112.159 157.392 112.097 157.786 112.099C158.711 112.088 159.618 112.346 160.4 112.84C161.181 113.335 161.803 114.045 162.189 114.886C162.551 115.676 162.694 116.549 162.603 117.413C162.503 118.372 162.12 119.28 161.502 120.02C160.839 120.817 159.937 121.38 158.93 121.627C157.922 121.873 156.862 121.79 155.906 121.389C155.45 121.206 155.028 120.95 154.655 120.632C154.291 120.335 153.976 119.983 153.722 119.588C153.271 118.912 153 118.133 152.932 117.324C152.864 116.515 153.003 115.702 153.334 114.961C153.778 113.96 154.557 113.146 155.536 112.658C155.884 112.473 156.261 112.347 156.65 112.283C156.287 112.42 155.931 112.576 155.584 112.75C154.659 113.26 153.932 114.067 153.519 115.04C153.237 115.702 153.113 116.421 153.158 117.14C153.21 117.966 153.478 118.763 153.938 119.452C154.18 119.821 154.477 120.153 154.818 120.433C155.171 120.733 155.572 120.973 156.003 121.142C156.907 121.516 157.906 121.592 158.856 121.36C159.806 121.127 160.657 120.597 161.286 119.848C161.589 119.496 161.833 119.097 162.008 118.668C162.183 118.26 162.295 117.828 162.343 117.387C162.428 116.617 162.321 115.838 162.029 115.121C161.738 114.404 161.272 113.77 160.674 113.279C159.859 112.607 158.842 112.229 157.786 112.204C157.399 112.209 157.012 112.236 156.628 112.283Z" fill="#EBEBEB"/>
<path d="M157.773 106.044L157.693 105.899C157.632 105.789 157.557 105.644 157.456 105.459L156.544 103.698H156.593L152.304 104.772L152.357 104.706C152.357 105.516 152.392 106.414 152.414 107.379V107.423L152.37 107.449C151.532 107.911 150.759 108.483 150.072 109.149L150.032 109.184H149.984L147.443 108.347L147.558 108.303L145.273 112.09V111.958L147.197 113.811L147.245 113.86V113.921C146.974 114.839 146.826 115.788 146.805 116.744V116.814L146.743 116.845L144.352 118.043L144.418 117.906C144.749 119.253 145.105 120.706 145.475 122.199L145.347 122.102L148.02 122.054H148.099L148.134 122.124C148.593 122.96 149.16 123.731 149.821 124.418L149.878 124.475L149.852 124.55C149.587 125.347 149.301 126.21 149.006 127.086L148.949 126.932L152.731 129.222L152.564 129.244L154.422 127.32L154.479 127.263L154.558 127.285C155.471 127.555 156.416 127.703 157.368 127.725H157.451L157.491 127.795C157.89 128.6 158.288 129.396 158.684 130.186L158.53 130.116L162.823 129.063L162.722 129.195C162.722 128.315 162.691 127.408 162.673 126.527V126.444L162.744 126.408C163.581 125.95 164.354 125.383 165.042 124.722L165.099 124.669L165.174 124.696L167.706 125.541L167.556 125.598L169.85 121.82L169.872 121.975L167.952 120.116L167.9 120.064L167.922 119.993C168.192 119.077 168.34 118.13 168.362 117.175V117.105L168.428 117.074L170.819 115.885L170.761 116.013C170.392 114.503 170.048 113.076 169.718 111.716L169.819 111.795L167.147 111.834H167.089L167.063 111.786C166.605 110.944 166.038 110.167 165.377 109.474L165.337 109.439V109.386C165.65 108.466 165.927 107.625 166.191 106.855L166.226 106.947L162.457 104.64H162.532C161.788 105.402 161.172 106.027 160.665 106.551H160.643H160.621C159.928 106.343 159.215 106.203 158.495 106.133L157.962 106.088C158.081 106.088 158.261 106.088 158.499 106.088C159.225 106.143 159.944 106.271 160.643 106.472H160.599L162.444 104.534L162.479 104.499L162.519 104.525L166.284 106.771L166.341 106.806L166.319 106.863L165.482 109.404L165.46 109.311C166.138 110.01 166.718 110.796 167.186 111.649L167.103 111.601L169.771 111.548H169.854L169.876 111.632L170.938 115.925V116.013L170.858 116.052L168.472 117.25L168.538 117.144C168.519 118.121 168.371 119.091 168.098 120.028L168.062 119.905L169.991 121.759L170.061 121.829L170.009 121.913C169.263 123.146 168.5 124.406 167.719 125.695L167.666 125.783L167.569 125.752L165.033 124.907L165.165 124.876C164.462 125.555 163.671 126.137 162.814 126.606L162.885 126.488C162.885 127.368 162.915 128.249 162.933 129.156V129.266L162.832 129.292L158.534 130.345L158.429 130.371L158.38 130.274C157.988 129.482 157.588 128.685 157.187 127.883L157.306 127.958C156.329 127.941 155.359 127.793 154.422 127.518L154.558 127.483C153.92 128.143 153.29 128.804 152.7 129.402L152.626 129.482L152.533 129.424L148.755 127.13L148.663 127.078L148.698 126.976C148.989 126.096 149.279 125.237 149.548 124.44L149.574 124.572C148.898 123.869 148.319 123.078 147.853 122.221L147.967 122.287L145.295 122.331H145.193L145.171 122.234C144.806 120.742 144.454 119.284 144.123 117.937L144.101 117.84L144.189 117.8C145.022 117.387 145.836 116.977 146.58 116.612L146.514 116.713C146.533 115.738 146.681 114.769 146.954 113.833L146.985 113.948L145.066 112.085L145.004 112.028L145.048 111.953C145.855 110.627 146.623 109.369 147.351 108.18L147.39 108.114L147.461 108.136L149.997 108.99L149.904 109.012C150.607 108.339 151.396 107.763 152.251 107.299L152.212 107.37C152.212 106.41 152.185 105.507 152.172 104.702V104.644H152.225L156.527 103.618H156.562V103.649C156.935 104.424 157.228 105.019 157.442 105.432L157.658 105.895C157.703 105.939 157.742 105.989 157.773 106.044Z" fill="#EBEBEB"/>
<path d="M203.119 199.802C203.119 199.864 157.645 199.916 101.564 199.916C45.483 199.916 0 199.864 0 199.802C0 199.74 45.4654 199.674 101.56 199.674C157.654 199.674 203.119 199.74 203.119 199.802Z" fill="#263238"/>
<path fill-rule="evenodd" clip-rule="evenodd" d="M29.4342 14.9332C31.0599 13.9609 32.8088 13.2115 34.6342 12.7053L35.7129 7.59341L44.3208 7.47012L45.5668 12.5468C47.3971 13.0038 49.1579 13.7043 50.802 14.6294L55.183 11.7807L61.3824 17.8304L58.6569 22.2862C59.629 23.9047 60.3798 25.6462 60.8892 27.4641L66.0011 28.5473L66.1244 37.1904L61.0522 38.4012C60.5932 40.2323 59.8928 41.9942 58.9695 43.6408L61.8183 48.0173L55.7686 54.2212L51.3127 51.4957C49.694 52.4662 47.9525 53.2155 46.1348 53.7236L45.0517 58.8355L36.4042 58.9588L35.1757 53.8777C33.3454 53.4207 31.5847 52.7202 29.9406 51.7951L25.5376 54.6439L19.3734 48.6161L22.0988 44.1603C21.1269 42.5361 20.3775 40.7886 19.8709 38.9648L14.7546 37.8816L14.6357 29.2782L19.7168 28.0497C20.1725 26.2183 20.8714 24.4561 21.795 22.8102L18.9463 18.4336L24.974 12.2077L29.4342 14.9332Z" fill="#59856E"/>
<path d="M45.4787 30.6695C45.4376 30.0523 45.3448 29.4396 45.2013 28.8379C45.0254 28.142 44.7448 27.4769 44.3691 26.8653C43.8255 25.9667 43.0981 25.193 42.2346 24.5951C41.3711 23.9971 40.391 23.5885 39.3585 23.3958C38.0607 23.1577 36.7227 23.2717 35.4839 23.726C34.8145 23.9646 34.1851 24.303 33.617 24.7299C33.0156 25.164 32.4891 25.6935 32.0584 26.2973C31.1289 27.5598 30.6276 29.0864 30.6276 30.6541C30.6276 32.2218 31.1289 33.7484 32.0584 35.0109C32.2804 35.3192 32.5216 35.6133 32.7804 35.8915C33.0426 36.1468 33.3221 36.3837 33.617 36.6004C34.1839 37.0302 34.8136 37.3703 35.4839 37.6086C36.7235 38.0596 38.061 38.172 39.3585 37.9345C40.391 37.7418 41.3711 37.3331 42.2346 36.7352C43.0981 36.1372 43.8255 35.3636 44.3691 34.4649C44.7449 33.8529 45.0269 33.188 45.2057 32.4924C45.3458 31.8961 45.4371 31.2894 45.4787 30.6783C45.4854 30.7177 45.4854 30.7579 45.4787 30.7972C45.4787 30.8941 45.4787 31.0086 45.4787 31.1539C45.4795 31.3486 45.4633 31.5431 45.4303 31.735C45.404 31.9981 45.3569 32.2587 45.2894 32.5144C45.1247 33.2243 44.8514 33.9045 44.4792 34.531C43.9359 35.4571 43.2013 36.2567 42.3243 36.8763C41.4473 37.4959 40.4482 37.9212 39.3937 38.1238C38.0681 38.371 36.7006 38.2616 35.431 37.8068C34.7326 37.561 34.0761 37.2091 33.4849 36.7633C32.8648 36.3192 32.3219 35.7763 31.8778 35.1562C30.9168 33.856 30.3982 32.2819 30.3982 30.6651C30.3982 29.0483 30.9168 27.4742 31.8778 26.1741C32.1055 25.8639 32.3542 25.5697 32.6219 25.2935C32.8995 25.0312 33.1937 24.7871 33.5025 24.5626C34.0825 24.1306 34.7256 23.7905 35.409 23.5543C36.5975 23.1226 37.8755 22.9971 39.1251 23.1895C40.3748 23.3819 41.5559 23.8859 42.5595 24.655C43.3286 25.244 43.9761 25.9767 44.466 26.8125C44.843 27.4413 45.1207 28.1244 45.2894 28.8379C45.3566 29.0951 45.4037 29.3571 45.4303 29.6216C45.4634 29.8121 45.4796 30.0051 45.4787 30.1984C45.4787 30.3437 45.4787 30.4626 45.4787 30.555C45.4842 30.593 45.4842 30.6316 45.4787 30.6695Z" fill="white"/>
<path d="M43.123 36.1204C43.167 36.0764 44.7961 37.6351 46.7643 39.6032C48.7324 41.5714 50.2867 43.2005 50.247 43.2445C50.2074 43.2885 48.5695 41.7299 46.6014 39.7661C44.6332 37.8024 43.079 36.1645 43.123 36.1204Z" fill="white"/>
<path fill-rule="evenodd" clip-rule="evenodd" d="M88.5399 47.6519C90.6165 46.4047 92.8512 45.4421 95.1841 44.79L96.5754 38.2251L107.671 38.071L109.247 44.5918C111.598 45.1781 113.859 46.077 115.971 47.2644L121.593 43.6056L129.549 51.3416L126.053 57.0655C127.298 59.1435 128.26 61.3778 128.915 63.7096L135.476 65.101L135.634 76.1965L129.114 77.7728C128.525 80.1227 127.627 82.3837 126.441 84.4962L130.095 90.1188L122.359 98.0751L116.635 94.5791C114.556 95.8239 112.32 96.7864 109.987 97.441L108.604 104.001L97.5044 104.16L95.9282 97.6391C93.5782 97.0513 91.3171 96.1525 89.2048 94.9665L83.5866 98.621L75.626 90.885L79.1219 85.1611C77.8768 83.0824 76.9158 80.8464 76.2644 78.5125L69.6995 77.1256L69.5454 66.0256L76.0663 64.4538C76.6526 62.1032 77.5514 59.8419 78.7389 57.7304L75.08 52.1077L82.816 44.1471L88.5399 47.6475V47.6519Z" fill="#59856E"/>
<path d="M98.8341 82.6777H98.9662H99.3449H100.802L106.249 82.6425L106.183 82.7086C106.161 81.7751 106.134 80.7228 106.108 79.5956V79.5428L106.156 79.5208C107.877 78.7191 109.45 77.6307 110.806 76.3022C111.568 75.5607 112.225 74.7194 112.761 73.8013C113.323 72.8205 113.688 71.739 113.835 70.6179C114.107 68.1698 113.517 65.7035 112.166 63.6436C110.7 61.4332 108.576 59.7391 106.095 58.8003C104.23 58.1135 102.207 57.973 100.265 58.3952C98.4084 58.7458 96.6673 59.5505 95.1973 60.7376C93.8335 61.8598 92.7812 63.3138 92.1416 64.9601C92.0051 65.3607 91.8334 65.7438 91.7321 66.1445C91.6308 66.5451 91.5384 66.9458 91.4415 67.3377C91.2997 68.1133 91.2304 68.9004 91.2346 69.6889C91.2521 70.4302 91.345 71.1679 91.5119 71.8904C91.6824 72.5709 91.923 73.2319 92.2296 73.8629C92.7894 74.9923 93.5334 76.0206 94.4311 76.9054C95.7419 78.2109 97.2823 79.2632 98.975 80.0095H99.0014V80.0359C98.9486 80.8872 98.909 81.5344 98.8826 81.9777C98.8826 82.1934 98.8826 82.3563 98.8517 82.4796C98.8561 82.5368 98.8561 82.5942 98.8517 82.6513C98.8455 82.5987 98.8455 82.5455 98.8517 82.4928C98.8517 82.3739 98.8517 82.211 98.8517 81.9997C98.8517 81.5594 98.8914 80.8945 98.9222 80.0315L98.9486 80.0756C97.2328 79.3453 95.6692 78.2999 94.3387 76.9935C93.4213 76.1005 92.662 75.0583 92.0931 73.9114C91.778 73.2709 91.5301 72.5996 91.3534 71.908C91.1799 71.1683 91.0811 70.4131 91.0584 69.6537C91.0528 68.8522 91.1206 68.0519 91.261 67.2628C91.3578 66.8622 91.4547 66.4615 91.5516 66.052C91.6484 65.6425 91.829 65.2507 91.9655 64.8456C92.6145 63.1633 93.6848 61.6759 95.074 60.5262C96.5757 59.3293 98.3498 58.5216 100.239 58.175C102.221 57.7416 104.287 57.8836 106.192 58.5845C108.713 59.5432 110.869 61.2697 112.356 63.5203C113.058 64.5875 113.561 65.7736 113.84 67.0207C113.917 67.32 113.973 67.6246 114.007 67.9321C114.06 68.2331 114.09 68.5379 114.095 68.8435C114.095 69.1473 114.121 69.4511 114.126 69.7505L114.042 70.6311C113.892 71.7786 113.514 72.8846 112.933 73.8849C112.385 74.8179 111.714 75.6725 110.938 76.4255C109.554 77.7516 107.955 78.8325 106.209 79.6221L106.258 79.5472C106.258 80.6744 106.293 81.7487 106.306 82.6645V82.735H106.236L100.749 82.6997H99.3097H98.9398L98.8341 82.6777Z" fill="white"/>
<path d="M106.354 84.7559C105.088 84.8723 103.816 84.912 102.546 84.8748C101.275 84.912 100.003 84.8738 98.7371 84.7603C100.003 84.6469 101.275 84.6087 102.546 84.6459C103.816 84.6061 105.088 84.6428 106.354 84.7559Z" fill="white"/>
<path d="M103.889 87.6179C103.458 87.7753 102.997 87.8296 102.541 87.7764C102.088 87.7977 101.636 87.7148 101.22 87.5342C101.667 87.4886 102.117 87.4886 102.563 87.5342C103.007 87.5167 103.451 87.5447 103.889 87.6179Z" fill="white"/>
<path d="M100.388 82.6777C100.382 82.6369 100.382 82.5953 100.388 82.5544V82.1846C100.388 81.8412 100.388 81.37 100.41 80.7668C100.441 79.5208 100.481 77.7464 100.534 75.5581C100.56 74.4573 100.595 73.2553 100.626 71.9608C100.646 71.6457 100.603 71.3298 100.499 71.0318C100.458 70.8902 100.369 70.7678 100.246 70.6869C100.123 70.6061 99.9751 70.5722 99.8293 70.5915C99.6802 70.6404 99.5469 70.7282 99.4432 70.8459C99.3395 70.9635 99.2691 71.1068 99.2392 71.2608C99.1595 71.5878 99.2034 71.9328 99.3625 72.2294C99.5334 72.5413 99.7772 72.8071 100.073 73.0041C100.369 73.2012 100.708 73.3236 101.062 73.361C101.432 73.402 101.806 73.3511 102.152 73.2129C102.498 73.0747 102.804 72.8533 103.043 72.5684C103.56 71.9764 103.854 71.2228 103.876 70.4374C103.909 70.0469 103.828 69.6551 103.642 69.3102C103.553 69.1509 103.413 69.0256 103.245 68.954C103.077 68.8823 102.89 68.8682 102.713 68.914C102.55 68.9969 102.419 69.1309 102.34 69.2955C102.26 69.4601 102.237 69.6462 102.273 69.8254C102.358 70.2098 102.54 70.566 102.801 70.8601C103.268 71.496 103.904 71.9874 104.637 72.2778C104.99 72.4084 105.369 72.4536 105.742 72.4099C106.106 72.3554 106.451 72.2117 106.746 71.9916C107.036 71.7831 107.256 71.4913 107.376 71.1551C107.433 70.9944 107.457 70.8241 107.447 70.654C107.437 70.4839 107.393 70.3175 107.319 70.1644C107.254 70.017 107.149 69.8908 107.016 69.8004C106.883 69.7101 106.727 69.6592 106.566 69.6537C106.407 69.6669 106.254 69.7162 106.117 69.7979C105.981 69.8795 105.864 69.9913 105.778 70.1248C105.412 70.6663 105.408 71.3752 105.315 72.0049C105.174 73.2861 105.082 74.4881 104.998 75.5845C104.853 77.786 104.734 79.5472 104.651 80.78C104.606 81.3832 104.576 81.8544 104.554 82.1934C104.554 82.3475 104.532 82.4664 104.523 82.5632C104.528 82.6042 104.528 82.6456 104.523 82.6865C104.518 82.6456 104.518 82.6042 104.523 82.5632C104.523 82.4664 104.523 82.3431 104.523 82.1934C104.523 81.8544 104.554 81.3788 104.576 80.7756C104.629 79.5472 104.712 77.7684 104.857 75.5757C104.928 74.4749 105.012 73.2729 105.144 71.9828C105.183 71.6614 105.214 71.3356 105.271 71.001C105.316 70.6484 105.437 70.3101 105.628 70.0103C105.732 69.8495 105.873 69.715 106.038 69.6173C106.203 69.5195 106.388 69.4611 106.579 69.4467C106.778 69.4516 106.973 69.5124 107.139 69.6222C107.306 69.7319 107.438 69.8862 107.521 70.0675C107.611 70.2457 107.663 70.44 107.676 70.6389C107.689 70.8379 107.662 71.0373 107.596 71.2255C107.464 71.6036 107.22 71.9324 106.896 72.1678C106.572 72.4112 106.192 72.5701 105.791 72.6301C105.382 72.6807 104.967 72.6324 104.58 72.4892C103.806 72.1871 103.134 71.6709 102.643 71.001C102.353 70.6787 102.154 70.2852 102.066 69.8606C102.022 69.6284 102.057 69.3881 102.164 69.1777C102.272 68.9673 102.446 68.7986 102.66 68.6982C102.888 68.6329 103.13 68.6461 103.349 68.7355C103.568 68.825 103.75 68.9856 103.867 69.1913C104.077 69.5741 104.169 70.011 104.131 70.4462C104.11 71.2827 103.798 72.0857 103.25 72.7181C102.989 73.0335 102.653 73.279 102.274 73.4327C101.894 73.5864 101.482 73.6434 101.075 73.5987C100.686 73.5562 100.314 73.4198 99.9892 73.2012C99.6647 72.9826 99.3983 72.6884 99.2128 72.3439C99.0338 71.9997 98.9868 71.6019 99.0807 71.2255C99.1223 71.0355 99.2141 70.8601 99.3465 70.7176C99.4789 70.5751 99.6472 70.4707 99.8337 70.4154C99.9307 70.3984 100.03 70.4009 100.126 70.4228C100.222 70.4447 100.313 70.4856 100.393 70.5431C100.543 70.6552 100.657 70.808 100.723 70.9834C100.835 71.3084 100.88 71.653 100.855 71.9961C100.811 73.2861 100.771 74.4881 100.732 75.5889C100.653 77.7904 100.587 79.5516 100.538 80.7976C100.512 81.3964 100.49 81.872 100.472 82.211C100.472 82.3607 100.472 82.484 100.472 82.5809C100.449 82.617 100.421 82.6497 100.388 82.6777Z" fill="white"/>
<path d="M105.685 86.1781C104.662 86.2936 103.632 86.3319 102.603 86.2926C101.574 86.3319 100.544 86.2936 99.521 86.1781C100.544 86.0652 101.574 86.0269 102.603 86.0636C103.632 86.0269 104.662 86.0652 105.685 86.1781Z" fill="white"/>
<path fill-rule="evenodd" clip-rule="evenodd" d="M161.414 65.3827C162.749 64.5512 164.19 63.904 165.698 63.4586L166.53 59.1877L173.729 58.972L174.817 63.1856C176.352 63.5409 177.833 64.1007 179.22 64.85L182.83 62.4239L188.07 67.3597L185.868 71.1066C186.695 72.4438 187.342 73.8842 187.792 75.3907L192.063 76.2273L192.275 83.4218L188.061 84.5093C187.706 86.0449 187.146 87.5258 186.397 88.9123L188.827 92.5228L183.887 97.7624L180.14 95.5609C178.804 96.3906 177.363 97.0377 175.856 97.485L175.024 101.756L167.825 101.972L166.724 97.7227C165.189 97.3641 163.708 96.803 162.321 96.054L158.715 98.4845L153.475 93.5619L155.677 89.815C154.849 88.4798 154.202 87.0407 153.753 85.5352L149.482 84.6987L149.271 77.4998L153.515 76.3902C153.87 74.8545 154.43 73.3736 155.179 71.9872L152.749 68.3768L157.667 63.1812L161.414 65.3827Z" fill="#59856E"/>
<path d="M180.413 88.1947C180.297 88.2115 180.181 88.2189 180.065 88.2167H179.065L175.38 88.2519L163.232 88.2871H162.25V88.1726C162.25 83.6332 162.277 79.5648 162.285 76.6016C162.285 75.1486 162.316 73.9598 162.325 73.1232C162.325 72.7313 162.325 72.4187 162.325 72.181C162.326 72.072 162.333 71.9632 162.347 71.8551C162.36 71.9634 162.36 72.0727 162.347 72.181C162.347 72.4187 162.347 72.7313 162.369 73.1232C162.369 73.9686 162.391 75.1486 162.404 76.6016C162.404 79.5648 162.426 83.6464 162.44 88.1726L162.325 88.0582H163.206L175.354 88.089L179.039 88.1286H180.038C180.165 88.1371 180.291 88.1592 180.413 88.1947Z" fill="white"/>
<path d="M178.409 75.8354C178.244 76.0212 178.065 76.1935 177.872 76.3506L176.349 77.6715C175.054 78.7943 173.267 80.3353 171.263 82.0217L170.964 82.277L170.885 82.3431L170.81 82.2726L168.551 80.1724H168.692L165.372 82.9111L164.408 83.6816C164.297 83.7792 164.176 83.8648 164.047 83.937C164.14 83.8219 164.246 83.7184 164.364 83.6288L165.289 82.8098L168.556 80.0095L168.626 79.9478L168.696 80.0095L170.964 82.1009H170.814L171.118 81.8455C173.108 80.1592 174.922 78.6402 176.243 77.5482L177.815 76.2669C178.001 76.1071 178.2 75.9628 178.409 75.8354Z" fill="white"/>
<path d="M178.41 79.6176C178.347 79.2454 178.32 78.8679 178.33 78.4905C178.308 77.7904 178.295 76.8261 178.295 75.7474L178.41 75.8619H178.216C177.093 75.8619 176.076 75.8619 175.341 75.8267C174.941 75.8367 174.542 75.8101 174.147 75.7474C174.542 75.6815 174.941 75.6535 175.341 75.6638C176.076 75.6638 177.102 75.6329 178.216 75.6329H178.524V75.7474C178.524 76.8261 178.524 77.7904 178.489 78.4905C178.499 78.8679 178.472 79.2454 178.41 79.6176Z" fill="white"/>
<path d="M61.9325 88.8243C61.6957 88.4473 61.5232 88.0337 61.4217 87.6003C61.252 87.1884 61.1537 86.7507 61.1311 86.3058C61.3699 86.6817 61.5426 87.0957 61.6419 87.5298C61.8128 87.9413 61.9111 88.3793 61.9325 88.8243Z" fill="#263238"/>
<path d="M66.6174 98.2467C65.5157 96.8623 64.6254 95.3221 63.9756 93.6764C64.4628 94.4081 64.911 95.165 65.3185 95.944C65.7943 96.6866 66.2279 97.4554 66.6174 98.2467Z" fill="#263238"/>
<path d="M73.4861 106.203C72.0723 105.146 70.8281 103.88 69.7964 102.447C70.4515 103.033 71.0746 103.653 71.6633 104.305C72.3047 104.904 72.9132 105.538 73.4861 106.203Z" fill="#263238"/>
<path d="M82.1862 112.099C81.3499 111.81 80.5504 111.425 79.8042 110.949C79.0217 110.538 78.2927 110.033 77.6335 109.444C78.4173 109.845 79.18 110.285 79.9187 110.764C80.698 111.168 81.4549 111.613 82.1862 112.099Z" fill="#263238"/>
<path d="M92.19 115.322C90.4289 115.186 88.7012 114.766 87.0737 114.08C87.9435 114.21 88.8007 114.413 89.6363 114.688C90.5038 114.827 91.3581 115.039 92.19 115.322Z" fill="#263238"/>
<path d="M102.7 115.551C101.835 115.76 100.948 115.865 100.058 115.863C99.1776 115.941 98.2909 115.914 97.4165 115.784C98.2936 115.684 99.1756 115.634 100.058 115.634C100.937 115.559 101.819 115.531 102.7 115.551Z" fill="#263238"/>
<path d="M112.972 113.283C112.18 113.67 111.347 113.965 110.489 114.164C109.649 114.439 108.78 114.617 107.9 114.692C108.727 114.394 109.571 114.144 110.427 113.943C111.261 113.672 112.111 113.451 112.972 113.283Z" fill="#263238"/>
<path d="M122.505 108.818C121.083 109.872 119.515 110.712 117.851 111.315C118.593 110.843 119.362 110.415 120.154 110.034C120.913 109.584 121.698 109.178 122.505 108.818Z" fill="#263238"/>
<path d="M130.672 102.201C130.161 102.923 129.561 103.577 128.884 104.147C128.261 104.774 127.565 105.323 126.811 105.785C127.418 105.15 128.059 104.547 128.73 103.979C129.796 102.993 130.619 102.157 130.672 102.201Z" fill="#263238"/>
<path d="M136.489 93.4607C136.228 94.3065 135.865 95.117 135.405 95.8735C135.015 96.6673 134.524 97.4072 133.944 98.075C133.891 98.0354 134.512 97.0359 135.203 95.7634C135.591 94.9741 136.02 94.2055 136.489 93.4607Z" fill="#263238"/>
<path d="M140.099 83.5671C139.935 84.4316 139.696 85.2801 139.386 86.1033C139.147 86.9522 138.835 87.7787 138.452 88.5733C138.615 87.7073 138.854 86.8572 139.165 86.0328C139.402 85.1847 139.715 84.3595 140.099 83.5671Z" fill="#263238"/>
<path d="M143.467 73.5768C143.538 73.6076 143.133 74.7127 142.657 76.0865C142.405 76.9309 142.08 77.7515 141.684 78.5389C141.861 77.6756 142.114 76.8298 142.441 76.0116C142.675 75.3203 142.926 74.6907 143.115 74.2724C143.202 74.0262 143.32 73.7923 143.467 73.5768Z" fill="#263238"/>
<path d="M148.139 64.1455C147.77 64.9433 147.354 65.7181 146.893 66.4659C146.497 67.2528 146.056 68.0158 145.572 68.751C145.85 67.9127 146.224 67.1091 146.686 66.3558C147.083 65.5655 147.571 64.8238 148.139 64.1455Z" fill="#263238"/>
<path d="M155.171 56.3654C155.21 56.4183 154.29 57.1492 153.224 58.1266C152.159 59.1041 151.353 59.9715 151.305 59.923C151.799 59.1912 152.392 58.5305 153.066 57.9593C153.689 57.332 154.398 56.7955 155.171 56.3654Z" fill="#263238"/>
<path d="M164.663 51.9184C163.854 52.2537 163.028 52.5476 162.189 52.799C160.824 53.2877 159.736 53.7456 159.71 53.6796C160.462 53.213 161.27 52.8432 162.114 52.5788C162.933 52.255 163.79 52.0332 164.663 51.9184Z" fill="#263238"/>
<path d="M175.09 50.756C175.09 50.822 173.905 50.7912 172.448 50.844C170.99 50.8969 169.806 50.9894 169.806 50.9233C170.67 50.7115 171.558 50.608 172.448 50.6151C173.331 50.5463 174.219 50.5937 175.09 50.756Z" fill="#263238"/>
<path d="M185.261 53.3494C184.415 53.1082 183.583 52.8216 182.769 52.4908C181.404 52.0021 180.277 51.6542 180.294 51.6102C181.17 51.7318 182.028 51.961 182.848 52.2927C183.691 52.5485 184.501 52.9032 185.261 53.3494Z" fill="#263238"/>
<path d="M194.225 58.8355C194.181 58.8839 193.256 58.1574 192.072 57.3164C190.888 56.4755 189.906 55.8282 189.936 55.771C190.743 56.1322 191.504 56.5874 192.204 57.1271C192.947 57.6096 193.626 58.1836 194.225 58.8355Z" fill="#263238"/>
<path d="M199.513 64.6783C198.911 64.0332 198.385 63.3211 197.946 62.556C198.626 63.1317 199.163 63.8584 199.513 64.6783Z" fill="#263238"/>
<path d="M5.79883 26.927C5.79883 26.927 5.82084 26.7905 5.87808 26.5307L6.14226 25.3639C6.51873 23.877 7.00891 22.4211 7.60846 21.0093C8.58719 18.7942 9.8084 16.6944 11.2497 14.7483C13.1721 12.1594 15.4317 9.83906 17.9687 7.84876C21.0556 5.45322 24.5156 3.5819 28.2101 2.30979C30.2694 1.61821 32.3849 1.10701 34.5328 0.781949C36.8142 0.4535 39.1194 0.319461 41.4235 0.381276C43.8447 0.442463 46.2536 0.747816 48.6136 1.2927C51.0789 1.85443 53.471 2.69955 55.742 3.81121C58.085 4.98272 60.275 6.43782 62.2629 8.14376C64.3153 9.89328 66.1287 11.9051 67.6566 14.1274C69.1953 16.3586 70.4218 18.7895 71.3022 21.3528C72.1395 23.8264 72.6891 26.3882 72.9401 28.9876C72.9886 29.6304 73.059 30.2688 73.0899 30.9029C73.1207 31.5369 73.1163 32.1753 73.1339 32.805C73.1515 33.4346 73.0987 34.0686 73.0854 34.6938C73.0722 35.3191 72.9842 35.9399 72.9049 36.5519C72.5833 38.9584 71.9467 41.3121 71.0116 43.5527C70.1016 45.6717 69.0575 47.7306 67.8855 49.7169C66.7525 51.6454 65.6576 53.5152 64.6009 55.3263C62.6846 58.7105 61.3832 62.4074 60.7571 66.2457C60.4606 67.9126 60.2519 69.594 60.1318 71.2828C60.0129 72.881 59.9601 74.3957 59.9513 75.8134C59.8902 78.2329 60.005 80.6536 60.2947 83.0564C60.5115 84.5701 60.8472 86.0644 61.2986 87.5254C61.4615 88.0274 61.598 88.406 61.6993 88.6482C61.7477 88.7759 61.7918 88.8683 61.8182 88.93C61.8322 88.9614 61.844 88.9937 61.8534 89.0268C61.6164 88.5472 61.4176 88.0496 61.259 87.5386C60.7822 86.0815 60.4302 84.5864 60.2067 83.0696C59.9016 80.662 59.7735 78.2353 59.8236 75.809C59.8236 74.3913 59.8721 72.8766 59.9865 71.2739C60.1034 69.5717 60.3122 67.877 60.6118 66.1973C61.2298 62.3373 62.5283 58.6178 64.4468 55.2118L67.7226 49.6024C68.888 47.626 69.9263 45.5774 70.8311 43.469C71.7529 41.2453 72.3819 38.9113 72.7024 36.5255C72.7816 35.9135 72.8213 35.2971 72.8785 34.6806C72.9357 34.0642 72.9313 33.4346 72.9225 32.8094C72.9137 32.1841 72.8917 31.5501 72.8785 30.9161C72.8653 30.282 72.7772 29.648 72.7288 29.0096C72.4781 26.4198 71.9269 23.868 71.0865 21.4056C70.2177 18.8704 69.0059 16.466 67.4848 14.2595C65.9631 12.0534 64.157 10.0578 62.1132 8.32429C60.1417 6.6281 57.9695 5.18042 55.6452 4.01375C53.3904 2.9066 51.0144 2.06583 48.5652 1.50844C46.2188 0.961938 43.823 0.65509 41.4147 0.59262C39.1242 0.528693 36.8323 0.658308 34.5636 0.980084C32.4267 1.30091 30.3215 1.8062 28.2717 2.49031C24.5939 3.74848 21.1475 5.60183 18.07 7.97645C15.539 9.94341 13.281 12.2384 11.3554 14.8011C9.90815 16.7418 8.67823 18.8355 7.68771 21.0445C7.08212 22.4501 6.58031 23.8982 6.18629 25.3771L5.9001 26.5351L5.79883 26.927Z" fill="#263238"/>
<path d="M112.963 188.838L119.568 191.154L119.497 197.508C116.336 198.388 115.891 200 115.891 200L122.496 199.85L128.246 188.151L123.698 185.175L115.209 181.45" fill="#59856E"/>
<g opacity="0.6">
<path d="M128.255 188.152L122.504 199.85L115.891 200L116.613 198.992L121.985 198.573L127.29 187.517L128.255 188.152Z" fill="white"/>
</g>
<path d="M119.475 194.598C119.524 194.664 119.916 194.439 120.413 194.443C120.911 194.448 121.294 194.65 121.355 194.584C121.417 194.518 121.034 194.144 120.413 194.144C119.792 194.144 119.414 194.549 119.475 194.598Z" fill="#263238"/>
<path d="M119.546 193.021C119.616 193.065 119.898 192.669 120.426 192.555C120.955 192.44 121.377 192.673 121.417 192.603C121.457 192.533 121.36 192.462 121.175 192.365C120.922 192.242 120.634 192.209 120.36 192.273C120.086 192.334 119.841 192.49 119.669 192.713C119.537 192.872 119.515 193.004 119.546 193.021Z" fill="#263238"/>
<path d="M119.458 191C119.533 191.035 119.748 190.648 120.206 190.476C120.664 190.305 121.087 190.45 121.113 190.375C121.14 190.3 121.043 190.252 120.858 190.186C120.613 190.111 120.35 190.12 120.11 190.212C119.871 190.303 119.669 190.472 119.537 190.692C119.427 190.868 119.423 190.987 119.458 191Z" fill="#263238"/>
<path d="M118.973 190.996C119.053 190.996 119.004 190.556 119.202 190.115C119.4 189.675 119.722 189.411 119.682 189.34C119.643 189.27 119.167 189.45 118.934 190.001C118.7 190.551 118.903 191.031 118.973 190.996Z" fill="#263238"/>
<path d="M118.19 190.252C118.287 189.968 118.339 189.671 118.344 189.371C118.375 189.054 118.405 188.733 118.432 188.402C118.465 188.198 118.465 187.99 118.432 187.786C118.399 187.651 118.316 187.534 118.198 187.46C118.132 187.419 118.056 187.397 117.978 187.397C117.9 187.397 117.824 187.419 117.758 187.46C117.579 187.616 117.448 187.819 117.379 188.046C117.313 188.239 117.273 188.441 117.261 188.645C117.241 188.987 117.301 189.329 117.437 189.644C117.674 190.186 118.005 190.375 118.018 190.353C117.873 190.101 117.744 189.841 117.63 189.574C117.535 189.28 117.501 188.97 117.529 188.662C117.549 188.485 117.589 188.311 117.648 188.143C117.701 187.975 117.795 187.824 117.921 187.702C117.941 187.689 117.965 187.682 117.989 187.682C118.014 187.682 118.037 187.689 118.058 187.702C118.112 187.739 118.151 187.793 118.168 187.857C118.188 188.032 118.188 188.209 118.168 188.385C118.168 188.715 118.168 189.037 118.141 189.354C118.109 189.654 118.125 189.957 118.19 190.252Z" fill="#263238"/>
<path d="M118.084 190.538C118.11 190.538 117.912 190.234 117.406 190.067C117.063 189.959 116.694 189.966 116.356 190.087C116.017 190.208 115.727 190.436 115.53 190.736C115.516 190.778 115.511 190.823 115.516 190.867C115.52 190.911 115.534 190.953 115.557 190.991C115.599 191.057 115.66 191.108 115.733 191.137C115.832 191.172 115.936 191.192 116.041 191.198C116.22 191.216 116.399 191.216 116.578 191.198C116.881 191.172 117.179 191.097 117.459 190.978C117.93 190.771 118.15 190.538 118.128 190.503C118.106 190.468 117.846 190.639 117.388 190.785C117.121 190.867 116.844 190.918 116.565 190.934C116.401 190.947 116.236 190.947 116.072 190.934C115.996 190.932 115.922 190.917 115.852 190.89C115.794 190.859 115.808 190.868 115.812 190.846C115.843 190.786 115.887 190.734 115.94 190.692C116 190.634 116.065 190.581 116.133 190.534C116.269 190.444 116.417 190.375 116.574 190.331C116.831 190.25 117.105 190.235 117.371 190.287C117.613 190.358 117.851 190.442 118.084 190.538Z" fill="#263238"/>
<g opacity="0.6">
<path d="M122.98 188.068C122.985 188.276 123.072 188.473 123.222 188.617C123.372 188.761 123.574 188.839 123.782 188.834C123.989 188.829 124.187 188.742 124.331 188.592C124.474 188.442 124.552 188.241 124.548 188.033C124.543 187.825 124.456 187.627 124.306 187.484C124.155 187.34 123.954 187.262 123.746 187.267C123.538 187.271 123.341 187.358 123.197 187.509C123.054 187.659 122.976 187.86 122.98 188.068Z" fill="white"/>
</g>
<path d="M79.0558 186.179L79.1482 194.831C79.1482 194.831 70.3775 197.829 70.2366 199.432L87.0296 199.872L87.4435 186.381L79.0558 186.179Z" fill="#59856E"/>
<g opacity="0.6">
<path d="M84.3571 194.241C84.5151 194.297 84.6471 194.409 84.7282 194.556C84.8093 194.703 84.8339 194.874 84.7974 195.038C84.7473 195.197 84.6384 195.331 84.4928 195.413C84.3471 195.495 84.1758 195.518 84.0136 195.478C83.8445 195.421 83.7023 195.304 83.6145 195.149C83.5267 194.994 83.4995 194.811 83.5381 194.637C83.604 194.469 83.7335 194.334 83.8985 194.262C84.0635 194.189 84.2505 194.185 84.4187 194.25" fill="white"/>
</g>
<g opacity="0.6">
<path d="M87.0296 199.863V198.503L70.9322 198.6C70.9322 198.6 70.1749 198.908 70.2453 199.436L87.0296 199.863Z" fill="white"/>
</g>
<path d="M78.8753 194.743C78.8753 194.826 79.2847 194.875 79.6854 195.148C80.0861 195.421 80.2842 195.773 80.3635 195.742C80.4427 195.711 80.3282 195.236 79.8439 194.91C79.3596 194.584 78.862 194.668 78.8753 194.743Z" fill="#263238"/>
<path d="M77.0962 195.43C77.0742 195.504 77.4264 195.654 77.6994 196.011C77.9724 196.367 78.0384 196.733 78.1397 196.729C78.241 196.724 78.285 196.266 77.9416 195.848C77.5981 195.43 77.1006 195.35 77.0962 195.43Z" fill="#263238"/>
<path d="M76.0441 197.508C76.119 197.53 76.2423 197.12 76.0441 196.667C75.846 196.213 75.4629 196.024 75.4277 196.095C75.3925 196.165 75.6214 196.407 75.7799 196.781C75.9384 197.156 75.9605 197.499 76.0441 197.508Z" fill="#263238"/>
<path d="M79.0778 192.77C79.1086 192.845 79.4873 192.739 79.9584 192.77C80.4295 192.801 80.7774 192.968 80.839 192.902C80.9007 192.836 80.544 192.528 79.998 192.488C79.4521 192.449 79.0382 192.704 79.0778 192.77Z" fill="#263238"/>
<g opacity="0.3">
<path d="M79.0779 187.896L79.0911 189.437L87.3467 189.574L87.3907 188.182L79.0779 187.896Z" fill="black"/>
</g>
<path d="M79.1042 191.022C79.3793 191.099 79.6702 191.099 79.9452 191.022C80.2475 190.975 80.5431 190.892 80.8258 190.776C80.9939 190.704 81.1571 190.622 81.3146 190.529C81.4097 190.479 81.4972 190.415 81.5743 190.34C81.6302 190.282 81.6652 190.208 81.674 190.128C81.6828 190.048 81.6647 189.968 81.6228 189.899C81.5841 189.841 81.532 189.792 81.4707 189.758C81.4094 189.723 81.3408 189.704 81.2705 189.701C81.1638 189.7 81.0574 189.712 80.9535 189.737C80.7733 189.778 80.5966 189.834 80.4251 189.904C80.1383 190.024 79.8723 190.189 79.637 190.393C79.2363 190.745 79.0954 191.049 79.1263 191.062C79.1571 191.075 79.3552 190.837 79.7603 190.551C79.9957 190.385 80.2518 190.25 80.522 190.15C80.6805 190.091 80.8441 190.045 81.0107 190.014C81.1869 189.97 81.341 189.974 81.385 190.054C81.429 190.133 81.385 190.093 81.385 190.146C81.3285 190.201 81.2648 190.249 81.1957 190.287C81.053 190.375 80.906 190.456 80.7554 190.529C80.4918 190.651 80.2177 190.748 79.9364 190.82C79.6547 190.868 79.3766 190.936 79.1042 191.022Z" fill="#263238"/>
<path d="M79.1922 191.141C79.2231 191.141 79.3904 190.868 79.4344 190.335C79.4585 190.024 79.4287 189.712 79.3463 189.411C79.2954 189.233 79.2276 189.06 79.1438 188.896C79.1026 188.783 79.0325 188.683 78.9406 188.606C78.8486 188.528 78.7381 188.476 78.6198 188.455C78.5446 188.455 78.4706 188.475 78.4067 188.515C78.3427 188.555 78.2914 188.612 78.2588 188.68C78.2138 188.776 78.1827 188.879 78.1663 188.984C78.1379 189.172 78.1379 189.363 78.1663 189.552C78.2036 189.868 78.3185 190.171 78.501 190.432C78.818 190.873 79.157 190.983 79.1658 190.956C79.1746 190.93 78.9149 190.749 78.6727 190.327C78.5347 190.081 78.4507 189.81 78.4261 189.53C78.413 189.368 78.4219 189.205 78.4525 189.045C78.4834 188.865 78.5538 188.724 78.6243 188.742C78.6947 188.759 78.8444 188.882 78.9104 189.028C78.9871 189.169 79.0519 189.316 79.1042 189.468C79.1923 189.742 79.2412 190.026 79.2495 190.313C79.2451 190.824 79.1482 191.128 79.1922 191.141Z" fill="#263238"/>
<path d="M118.093 181.767L98.7548 174.577L119.083 171.724L120.105 161.822L82.0938 165.137L76.7266 172.869L78.1399 182.564L115.174 191.978L118.093 181.767Z" fill="#263238"/>
<path d="M77.0919 188.697L75.2427 153.311C75.2923 151.615 75.7742 149.96 76.6426 148.503C77.511 147.046 78.7372 145.835 80.2049 144.985C81.4264 144.277 82.7843 143.838 84.1886 143.695C85.5929 143.552 87.0116 143.71 88.3504 144.157L113.007 152.382L126.542 155.86C126.542 155.86 128.849 161.549 127.493 165.965C126.172 170.293 121.426 173.168 117.256 171.931C112.074 170.399 88.2888 160.17 88.2888 160.17V188.984L77.0919 188.697Z" fill="#263238"/>
<path d="M116.891 172.028C116.841 172.016 116.792 172 116.746 171.979L116.305 171.816L114.685 171.169L108.754 168.752L89.2312 160.686L88.2361 160.276L88.3946 160.17C88.3946 168.175 88.3682 175.374 88.3594 180.587C88.3594 183.176 88.333 185.272 88.3242 186.751C88.3242 187.465 88.3242 188.024 88.3242 188.42C88.3242 188.601 88.3242 188.741 88.3242 188.86C88.3299 188.909 88.3299 188.957 88.3242 189.006C88.3174 188.957 88.3174 188.909 88.3242 188.86C88.3242 188.75 88.3242 188.609 88.3242 188.42C88.3242 188.024 88.3242 187.465 88.3021 186.751C88.3021 185.285 88.3021 183.189 88.2669 180.587C88.2669 175.374 88.2669 168.175 88.2317 160.17V159.999L88.3902 160.065L89.3853 160.474L108.895 168.598L114.799 171.085L116.402 171.772L116.816 171.957C116.843 171.979 116.868 172.002 116.891 172.028Z" fill="#455A64"/>
<path d="M94.1142 172.067C95.9032 172.381 97.5355 173.284 98.7506 174.634C98.7021 174.687 97.8215 173.868 96.5491 173.164C95.2766 172.459 94.0966 172.138 94.1142 172.067Z" fill="#455A64"/>
<path d="M86.1489 155.38C86.6813 156.124 87.1247 156.928 87.4698 157.775C87.8787 158.591 88.1877 159.453 88.3901 160.342C87.973 159.537 87.5968 158.711 87.2629 157.868C86.8498 157.058 86.478 156.228 86.1489 155.38Z" fill="#455A64"/>
<path d="M86.1932 139.789L81.8343 138.974L77.2507 143.646L78.0961 146.622L83.4369 144.659L86.1932 139.789Z" fill="#FFBE9D"/>
<path d="M70.0691 87.9084L68.8891 88.0053C68.8891 88.0053 66.7625 88.3531 66.7625 88.4016C66.7625 88.45 65.829 89.7533 65.829 89.7577L64.9705 91.0786C65.1722 91.1474 65.3883 91.1633 65.598 91.1248C65.8077 91.0862 66.004 90.9945 66.1681 90.8585L65.8687 91.5233C66.173 91.6376 66.5088 91.6357 66.8118 91.518C67.1149 91.4002 67.3638 91.1747 67.511 90.8849C67.795 90.4281 68.1037 89.9872 68.4356 89.564L68.8231 89.5287C68.8539 89.608 70.3465 91.7302 70.3817 91.6642C70.417 91.5982 71.6498 90.4182 71.6498 90.4182L70.0691 87.9084Z" fill="#B5D0C2"/>
<path d="M73.235 97.0843L73.5829 90.5502L70.2718 86.7989L66.6305 87.019L65.1423 88.0581C65.2172 88.4192 66.2519 88.6658 67.3658 88.3443C68.1171 88.1613 68.8982 88.1358 69.6598 88.2695L71.06 90.7132L70.1353 91.7347L71.3197 98.0001L73.235 97.0843Z" fill="#FFBE9D"/>
<path d="M63.5703 88.4676H75.4056C75.5492 88.4676 75.687 88.5246 75.7886 88.6262C75.8901 88.7278 75.9472 88.8655 75.9472 89.0092C75.9472 89.1528 75.8901 89.2905 75.7886 89.3921C75.687 89.4937 75.5492 89.5507 75.4056 89.5507H63.5703L62.4124 89.0092L63.5703 88.4676Z" fill="#263238"/>
<path d="M69.5629 98.8455L68.3565 95.8823C68.2041 95.5052 68.135 95.0997 68.1539 94.6935C68.2068 93.628 68.286 91.4881 68.1231 90.9994C67.903 90.3345 67.018 88.0714 67.5155 87.7411C68.013 87.4109 68.6999 87.3008 69.1842 88.6217C69.6686 89.9426 71.1568 92.8134 71.1568 92.8134L72.284 97.5246L69.5629 98.8455Z" fill="#FFBE9D"/>
<path d="M71.0071 92.514C70.7425 92.1116 70.5127 91.6874 70.3202 91.2459C69.9239 90.4622 69.3867 89.3218 68.8144 88.1418C68.7426 88.0167 68.6413 87.9111 68.5192 87.8344C68.3972 87.7576 68.2581 87.712 68.1143 87.7015C67.9825 87.705 67.8551 87.7492 67.7494 87.8281C67.6438 87.9069 67.5651 88.0165 67.5243 88.1418C67.4721 88.3984 67.4797 88.6635 67.5463 88.9167C67.5947 89.1721 67.652 89.4055 67.7048 89.6168C67.9382 90.4666 68.1803 90.9641 68.1451 90.9774C68.1099 90.9906 68.057 90.8717 67.9426 90.6471C67.7882 90.3298 67.6572 90.0017 67.5507 89.6653C67.4846 89.4495 67.4186 89.225 67.3614 88.9564C67.2756 88.6706 67.262 88.3681 67.3217 88.0758C67.3737 87.9064 67.477 87.7573 67.6174 87.6492C67.7579 87.5411 67.9284 87.4794 68.1055 87.4726C68.2875 87.4841 68.4636 87.5414 68.6175 87.6392C68.7715 87.7369 68.8982 87.8719 68.9861 88.0317C69.5981 89.2822 70.0824 90.3741 70.4479 91.1931C70.6692 91.6178 70.8562 92.0595 71.0071 92.514Z" fill="#B5D0C2"/>
<path d="M126.163 155.781L124.953 153.663L112.047 150.431L113.566 153.055L126.163 155.781Z" fill="#FFBE9D"/>
<path d="M68.4402 98.8455L76.5637 118.091C77.331 119.909 78.7853 121.351 80.6101 122.102L98.1384 129.301L102.22 118.007L85.1496 111.966L74.0628 96.1552L68.4402 98.8455Z" fill="#59856E"/>
<path d="M94.8318 118.183C94.8318 118.624 92.9385 132.643 92.9385 135.505C92.9385 138.367 98.4158 141.471 98.4158 141.471L104.417 154.209H125.776L118.471 140.493L115.169 129.486C113.921 125.317 111.641 121.531 108.538 118.478L104.967 116.088L94.8318 118.183Z" fill="#59856E"/>
<path d="M101.036 129.226L104.642 144.306L86.5364 139.203L83.4543 144.654L107.006 155.384C108.412 156.028 109.999 156.158 111.49 155.751C112.982 155.345 114.284 154.428 115.169 153.161C115.716 152.379 116.088 151.487 116.257 150.548C116.427 149.608 116.39 148.643 116.151 147.719L110.867 127.113C110.695 126.442 110.387 125.814 109.961 125.267C109.535 124.721 109.001 124.269 108.392 123.938C107.784 123.607 107.113 123.406 106.423 123.346C105.733 123.286 105.038 123.369 104.382 123.59C103.244 123.977 102.281 124.757 101.668 125.79C101.054 126.824 100.83 128.042 101.036 129.226Z" fill="#59856E"/>
<path d="M98.4156 141.471C98.3422 141.453 98.2723 141.423 98.2087 141.383C98.0766 141.317 97.8828 141.216 97.6363 141.079C96.9441 140.686 96.2805 140.245 95.6505 139.758C94.6892 139.058 93.8926 138.157 93.3169 137.116C92.7357 135.861 92.7753 134.32 92.9867 132.81C93.198 131.3 93.5195 129.869 93.7044 128.557C93.8893 127.245 94.0434 126.065 94.1183 125.065C94.1931 124.066 94.2063 123.26 94.2019 122.701C94.1854 122.408 94.1854 122.114 94.2019 121.82C94.2231 121.893 94.2349 121.969 94.2371 122.045C94.2371 122.19 94.2724 122.406 94.29 122.688C94.3314 123.481 94.3314 124.276 94.29 125.07C94.2371 126.074 94.1139 127.271 93.9201 128.592C93.7264 129.913 93.4402 131.34 93.2245 132.845C93.0087 134.351 92.9779 135.839 93.5151 137.028C94.0682 138.052 94.8339 138.945 95.7606 139.648C96.3776 140.14 97.023 140.596 97.6935 141.013C98.1558 141.299 98.4244 141.458 98.4156 141.471Z" fill="#263238"/>
<path d="M108.397 125.263C107.61 124.974 106.791 124.777 105.958 124.678C105.118 124.661 104.28 124.747 103.461 124.933C104.231 124.52 105.108 124.351 105.976 124.449C106.846 124.472 107.689 124.756 108.397 125.263Z" fill="#263238"/>
<path d="M105.962 117.127C105.962 117.127 105.857 117.268 105.637 117.492C105.417 117.717 105.091 118.034 104.677 118.417C103.853 119.183 102.687 120.213 101.348 121.288C100.01 122.362 98.7504 123.273 97.8257 123.929C97.3854 124.246 96.9804 124.497 96.7162 124.66C96.5794 124.758 96.4316 124.839 96.2759 124.902C96.3871 124.783 96.5128 124.678 96.6501 124.59L97.7201 123.797C98.6007 123.128 99.8599 122.195 101.198 121.125C102.537 120.055 103.713 119.051 104.562 118.316L105.566 117.435C105.685 117.316 105.818 117.213 105.962 117.127Z" fill="#263238"/>
<path d="M85.145 111.993C85.167 112.059 84.511 112.336 83.7845 112.816C83.058 113.296 82.534 113.78 82.4856 113.732C83.1287 112.854 84.0665 112.236 85.1274 111.993H85.145Z" fill="#263238"/>
<path d="M102.77 136.068C102.646 136.132 102.512 136.175 102.374 136.196C102.009 136.288 101.639 136.353 101.264 136.39C100.709 136.451 100.149 136.466 99.5912 136.434C98.2188 136.362 96.8732 136.026 95.6285 135.443C95.1203 135.207 94.6328 134.929 94.1711 134.611C93.8615 134.402 93.5672 134.171 93.2905 133.92C93.0924 133.739 92.9911 133.634 93.0043 133.62C93.0175 133.607 93.471 133.977 94.268 134.479C95.307 135.123 96.4385 135.604 97.6231 135.905C98.8097 136.201 100.035 136.31 101.256 136.227C102.189 136.161 102.761 136.029 102.77 136.068Z" fill="#FAFAFA"/>
<path d="M103.994 142.691C103.735 142.787 103.461 142.837 103.184 142.836C102.519 142.885 101.851 142.841 101.199 142.704C100.543 142.573 99.909 142.352 99.3141 142.048C99.0589 141.946 98.8257 141.797 98.6272 141.607C99.4721 141.975 100.347 142.27 101.243 142.488C102.153 142.629 103.073 142.697 103.994 142.691Z" fill="#FAFAFA"/>
<path d="M113.355 138.578C113.254 138.66 113.141 138.727 113.02 138.776C112.704 138.94 112.379 139.087 112.047 139.217C109.85 140.08 107.479 140.407 105.13 140.172C104.777 140.139 104.425 140.086 104.078 140.014C103.947 140.001 103.819 139.967 103.699 139.912C103.699 139.873 104.254 139.956 105.143 140.009C107.466 140.151 109.793 139.83 111.99 139.062C112.831 138.772 113.337 138.543 113.355 138.578Z" fill="#FAFAFA"/>
<path d="M111.686 131.203C111.686 131.238 111.123 131.133 110.225 131.027C109.056 130.887 107.878 130.837 106.702 130.877C105.52 130.923 104.342 131.057 103.18 131.278C102.299 131.45 101.749 131.595 101.736 131.56C101.851 131.491 101.975 131.441 102.105 131.41C102.348 131.326 102.704 131.23 103.145 131.119C104.301 130.851 105.481 130.694 106.667 130.648C107.856 130.605 109.046 130.678 110.22 130.864C110.66 130.939 111.035 131.014 111.281 131.08C111.423 131.097 111.56 131.139 111.686 131.203Z" fill="#FAFAFA"/>
<path d="M115.416 151.805C115.24 151.795 115.067 151.761 114.901 151.703C114.437 151.584 113.981 151.437 113.536 151.263C110.56 150.18 107.923 148.33 105.892 145.9C105.584 145.535 105.298 145.153 105.033 144.756C104.924 144.621 104.832 144.473 104.76 144.315C104.796 144.293 105.223 144.905 106.015 145.799C108.089 148.143 110.685 149.966 113.593 151.122C114.707 151.571 115.425 151.765 115.416 151.805Z" fill="#FAFAFA"/>
<path d="M99.1818 151.576C99.1125 151.163 99.0947 150.743 99.129 150.325C99.1676 149.314 99.3152 148.311 99.5693 147.331C99.8261 146.351 100.189 145.402 100.652 144.5C100.828 144.119 101.05 143.761 101.313 143.435C101.162 143.823 100.99 144.202 100.798 144.571C100.385 145.48 100.049 146.423 99.7939 147.389C99.5442 148.355 99.3749 149.34 99.2875 150.334C99.2784 150.75 99.2431 151.165 99.1818 151.576Z" fill="#FAFAFA"/>
<path d="M88.2846 146.622C88.2319 146.274 88.2319 145.919 88.2846 145.57C88.3684 144.713 88.6357 143.884 89.0684 143.14C89.5281 142.419 90.1021 141.778 90.7679 141.242C91.0247 141.002 91.3119 140.796 91.6221 140.63C91.3964 140.897 91.1474 141.143 90.878 141.365C90.2594 141.922 89.7175 142.559 89.2665 143.259C88.8517 143.979 88.574 144.77 88.4475 145.592C88.4209 145.939 88.3664 146.284 88.2846 146.622Z" fill="#FAFAFA"/>
<path d="M124.367 151.466C123.962 151.694 123.536 151.883 123.095 152.029C122.046 152.428 120.97 152.753 119.876 153.002C118.781 153.26 117.659 153.382 116.534 153.363C116.34 153.362 116.146 153.35 115.953 153.328C115.805 153.316 115.658 153.295 115.513 153.267C115.386 153.254 115.263 153.221 115.147 153.17C115.147 153.13 115.68 153.218 116.53 153.205C117.638 153.167 118.74 153.02 119.819 152.765C121.091 152.483 122.218 152.135 123.033 151.884C123.468 151.716 123.914 151.576 124.367 151.466Z" fill="#FAFAFA"/>
<path d="M119.532 142.761C119.554 142.761 119.418 143.043 119.048 143.311C118.569 143.652 118.046 143.928 117.494 144.13C116.949 144.346 116.386 144.511 115.812 144.623C115.637 144.66 115.458 144.679 115.279 144.681C115.151 144.681 115.072 144.632 115.085 144.628C115.099 144.623 115.345 144.593 115.777 144.465C116.208 144.337 116.781 144.157 117.41 143.915C117.946 143.715 118.463 143.469 118.956 143.179C119.33 142.955 119.497 142.743 119.532 142.761Z" fill="#FAFAFA"/>
<path d="M116.503 133.92C116.503 133.92 116.503 133.999 116.437 134.078C116.336 134.192 116.217 134.289 116.085 134.364C115.668 134.617 115.225 134.826 114.764 134.985C114.305 135.16 113.831 135.288 113.346 135.368C112.972 135.434 112.726 135.368 112.734 135.368C112.743 135.368 112.959 135.329 113.316 135.227C113.672 135.126 114.157 134.981 114.685 134.787C115.135 134.629 115.575 134.447 116.006 134.241C116.135 134.184 116.259 134.114 116.376 134.034C116.459 133.964 116.486 133.915 116.503 133.92Z" fill="#FAFAFA"/>
<path d="M100.807 129.248C100.466 129.313 100.117 129.328 99.7718 129.292C98.9366 129.253 98.1067 129.137 97.2929 128.944C96.4798 128.753 95.6867 128.484 94.9241 128.143C94.5999 128.019 94.2946 127.85 94.0171 127.641C94.0479 127.575 95.4613 128.284 97.3458 128.724C99.2302 129.165 100.807 129.178 100.807 129.248Z" fill="#FAFAFA"/>
<path d="M113.483 125.263C113.527 125.325 112.893 125.757 112.039 126.096C111.185 126.435 110.436 126.589 110.423 126.51C110.41 126.43 111.11 126.232 111.951 125.884C112.792 125.536 113.448 125.228 113.483 125.263Z" fill="#FAFAFA"/>
<path d="M103.611 119.54C103.847 119.656 104.056 119.821 104.223 120.024C105.113 120.943 105.659 122.14 105.769 123.414C105.81 123.674 105.798 123.939 105.734 124.194C105.589 122.443 104.839 120.797 103.611 119.54Z" fill="#FAFAFA"/>
<path d="M89.7375 125.805C89.6511 125.677 89.5829 125.538 89.535 125.391C89.3838 124.999 89.2674 124.593 89.1872 124.18C88.9325 122.813 88.943 121.409 89.218 120.046C89.491 118.69 89.892 117.363 90.4156 116.083C90.6093 115.59 90.7766 115.203 90.8955 114.925C90.9477 114.78 91.0188 114.642 91.1069 114.516C91.0824 114.667 91.0395 114.815 90.9792 114.956C90.8647 115.282 90.7282 115.674 90.5653 116.132C90.0914 117.422 89.7161 118.747 89.4425 120.094C89.1766 121.435 89.1439 122.811 89.3457 124.163C89.5174 125.189 89.7772 125.792 89.7375 125.805Z" fill="#FAFAFA"/>
<path d="M79.386 121.569C79.388 121.42 79.4132 121.271 79.4608 121.129C79.5537 120.729 79.6698 120.335 79.8087 119.949C80.7141 117.385 82.2963 115.113 84.3878 113.375C84.7024 113.112 85.0317 112.866 85.3741 112.64C85.4923 112.548 85.6227 112.472 85.7615 112.416C85.7835 112.451 85.264 112.816 84.4935 113.499C82.4865 115.28 80.9307 117.511 79.954 120.011C79.5841 120.962 79.4212 121.583 79.386 121.569Z" fill="#FAFAFA"/>
<path d="M81.0503 106.106C81.0503 106.146 80.5484 106.168 79.7735 106.388C78.7661 106.683 77.8011 107.108 76.9027 107.651C76.0042 108.194 75.171 108.838 74.4194 109.571C73.847 110.139 73.5388 110.549 73.5388 110.527C73.5388 110.505 73.5873 110.408 73.7105 110.218C73.7859 110.101 73.8683 109.987 73.9571 109.879C74.0688 109.734 74.1878 109.594 74.3137 109.461C75.0447 108.682 75.8805 108.007 76.797 107.458C77.7071 106.895 78.6995 106.477 79.7382 106.22C79.9179 106.175 80.1002 106.141 80.2842 106.119C80.4209 106.095 80.5593 106.082 80.6981 106.08C80.8161 106.066 80.9356 106.075 81.0503 106.106Z" fill="#FAFAFA"/>
<path d="M76.9422 100.1C75.6726 100.022 74.3984 100.12 73.1556 100.391C71.9337 100.741 70.7672 101.261 69.6904 101.936C69.9458 101.66 70.2429 101.425 70.571 101.241C71.3516 100.756 72.2027 100.395 73.094 100.171C73.982 99.9436 74.9002 99.8574 75.815 99.9154C76.1979 99.9201 76.5779 99.9824 76.9422 100.1Z" fill="#FAFAFA"/>
<path d="M101.036 129.226C101.077 129.319 101.108 129.417 101.128 129.517C101.181 129.724 101.256 130.006 101.344 130.353L102.127 133.497C102.784 136.196 103.691 139.952 104.734 144.262L104.778 144.447L104.598 144.395L99.9832 143.096L86.5012 139.265L86.5981 139.23L84.3086 143.193L83.6745 144.267L83.5028 144.544C83.4854 144.576 83.4647 144.605 83.4412 144.632C83.4412 144.632 83.4412 144.597 83.4852 144.531L83.6305 144.245L84.2293 143.148C84.7621 142.184 85.5194 140.819 86.4528 139.142L86.4836 139.085H86.5497L100.045 142.875L104.642 144.196L104.505 144.328C103.492 140.014 102.612 136.249 101.978 133.546C101.674 132.225 101.432 131.15 101.256 130.393L101.075 129.543C101.055 129.439 101.041 129.333 101.036 129.226Z" fill="#263238"/>
<path d="M110.955 128.31C110.997 128.391 111.027 128.477 111.043 128.566C111.101 128.764 111.167 129.006 111.255 129.319C111.435 130.001 111.695 130.943 111.981 132.093C112.584 134.47 113.399 137.702 114.306 141.273C114.746 143.065 115.187 144.769 115.548 146.336C115.917 147.72 116.034 149.16 115.891 150.585C115.779 151.549 115.433 152.471 114.883 153.271C114.687 153.566 114.443 153.827 114.161 154.041C114.392 153.781 114.608 153.508 114.808 153.223C115.315 152.424 115.631 151.521 115.733 150.581C115.85 149.174 115.717 147.758 115.341 146.398C114.953 144.844 114.531 143.135 114.081 141.343C113.201 137.768 112.408 134.527 111.827 132.15L111.167 129.358C111.101 129.046 111.043 128.795 110.999 128.597C110.977 128.503 110.962 128.407 110.955 128.31Z" fill="#263238"/>
<g opacity="0.3">
<path d="M114.24 154.209C116.882 154.455 118.427 152.941 118.714 150.876C118.868 149.735 118.493 148.599 118.124 147.507C116.499 142.748 114.852 137.944 112.276 133.62C113.249 137.944 114.478 142.096 115.464 146.424C115.773 147.626 115.912 148.865 115.878 150.105C115.819 151.621 115.241 153.07 114.24 154.209Z" fill="black"/>
</g>
<path d="M104.488 115.203C105.207 115.421 105.963 115.486 106.709 115.394C107.455 115.302 108.174 115.056 108.819 114.67C109.464 114.285 110.021 113.769 110.455 113.155C110.889 112.542 111.19 111.844 111.339 111.108C111.707 111.433 112.145 111.668 112.62 111.794C113.095 111.92 113.592 111.934 114.073 111.834C115.034 111.625 115.916 111.149 116.618 110.461C117.294 109.862 117.835 109.125 118.204 108.301C118.573 107.476 118.762 106.582 118.758 105.679C118.734 104.775 118.448 103.897 117.934 103.153C117.421 102.409 116.702 101.83 115.865 101.487C114.17 100.88 112.025 101.672 111.325 103.332C111.008 102.39 111.819 101.131 111.625 100.14C111.237 98.1806 110.066 97.0358 109.075 96.9962" fill="#B09C62"/>
<path d="M106.619 114.696C108.56 111.315 109.115 106.815 109.604 102.918C109.837 101.082 110.242 98.4712 108.992 97.3265C107.671 96.098 107.526 94.2047 105.985 93.2537C104.444 92.3026 102.361 92.2278 100.908 93.3153" fill="#B09C62"/>
<path d="M96.5399 121.424V116.14C96.5399 116.14 91.0142 115.137 90.6884 110.734C90.3625 106.331 90.477 96.0804 90.477 96.0804C92.8419 94.8374 95.5033 94.2695 98.1695 94.4388C100.836 94.6081 103.404 95.5081 105.593 97.0403L105.372 112.627V117.704L100.85 121.376L96.5311 124.775L96.5399 121.424Z" fill="#FFBE9D"/>
<path d="M94.9551 105.296C95.6948 104.349 96.8968 103.975 97.8875 104.627C98.3753 104.985 98.7251 105.501 98.8782 106.087C99.0313 106.673 98.9784 107.294 98.7284 107.845C98.5111 108.251 98.2117 108.606 97.8494 108.89C97.487 109.173 97.0697 109.378 96.6238 109.492C96.6238 109.492 98.614 113.12 99.882 114.084C101.388 115.229 102.084 115.793 103.955 116.013C105.826 116.233 105.566 116.251 106.623 114.692C107.338 113.632 107.701 112.373 107.658 111.095C107.716 107.828 107.772 104.562 107.825 101.298C107.895 100.119 107.819 98.936 107.6 97.7755C107.381 96.6171 106.738 95.5823 105.795 94.874C104.747 94.1695 103.426 94.1122 102.238 93.716C100.749 93.2272 99.4813 92.2145 98.09 91.4837C96.6986 90.7528 95.0079 90.3213 93.5945 91.0434C92.5951 91.5629 91.9258 92.5976 90.9527 93.1744C89.5702 93.9934 87.6769 93.8128 86.99 95.9219C86.7632 96.6561 86.7724 97.4431 87.0165 98.1718C87.9675 101.034 91.4195 102.179 93.8851 100.932C93.9336 101.417 93.4713 102.5 93.9732 104.015C94.1317 104.503 94.1889 105.252 94.933 105.261" fill="#B09C62"/>
<path d="M95.7253 108.061C95.7253 108.061 95.7253 108.145 95.7869 108.25C95.8436 108.324 95.9161 108.385 95.9991 108.428C96.0821 108.47 96.1736 108.494 96.2668 108.497C96.5732 108.472 96.8584 108.331 97.064 108.103C97.2695 107.874 97.3797 107.576 97.372 107.268C97.3836 107.1 97.3616 106.93 97.3072 106.77C97.2528 106.61 97.167 106.462 97.055 106.335C96.8788 106.133 96.6428 105.993 96.3813 105.934C95.941 105.842 95.6856 106.009 95.7032 106.04C95.7209 106.071 95.9674 106.04 96.3241 106.15C96.5506 106.229 96.7455 106.38 96.8796 106.579C97.0136 106.778 97.0798 107.015 97.0682 107.255C97.0717 107.492 96.9934 107.722 96.8465 107.907C96.6997 108.093 96.4934 108.222 96.2624 108.272C95.9058 108.294 95.7561 108.03 95.7253 108.061Z" fill="#B5D0C2"/>
<path d="M118.181 105.732C118.157 105.876 118.114 106.017 118.053 106.15C117.901 106.517 117.703 106.864 117.463 107.18C116.671 108.253 115.493 108.976 114.178 109.197C112.855 109.382 111.513 109.035 110.445 108.233C110.126 107.996 109.839 107.719 109.591 107.409C109.493 107.3 109.413 107.177 109.353 107.044C109.716 107.43 110.113 107.783 110.537 108.101C111.587 108.835 112.873 109.149 114.143 108.981C115.403 108.765 116.54 108.093 117.335 107.092C117.655 106.663 117.938 106.208 118.181 105.732Z" fill="#455A64"/>
<path d="M117.569 105.01C117.534 105.129 117.482 105.244 117.415 105.349C117.244 105.643 117.043 105.919 116.816 106.172C116.061 107.023 115.061 107.62 113.954 107.88C112.843 108.128 111.683 108.018 110.638 107.568C110.328 107.433 110.032 107.264 109.758 107.066C109.651 107.001 109.556 106.92 109.476 106.824C109.502 106.784 109.916 107.114 110.705 107.418C111.721 107.802 112.826 107.883 113.888 107.651C114.952 107.395 115.921 106.843 116.684 106.058C117.283 105.45 117.529 105.01 117.569 105.01Z" fill="#455A64"/>
<path d="M110.159 110.707C110.159 110.707 110.097 110.751 109.974 110.808C109.789 110.889 109.593 110.941 109.392 110.963C108.643 111.026 107.895 110.82 107.283 110.381C106.4 109.717 105.714 108.825 105.298 107.801C104.761 106.7 104.333 105.406 103.497 104.279C103.106 103.733 102.587 103.29 101.987 102.989C101.417 102.724 100.804 102.563 100.177 102.513C98.975 102.39 97.8654 102.469 96.9364 102.341C96.1975 102.275 95.4813 102.052 94.8361 101.685C94.6654 101.58 94.5047 101.459 94.3562 101.324C94.3033 101.279 94.256 101.227 94.2153 101.17C94.2153 101.17 94.4355 101.36 94.8802 101.611C95.527 101.935 96.2319 102.128 96.954 102.179C97.8654 102.284 98.9662 102.179 100.199 102.302C100.851 102.348 101.49 102.512 102.083 102.786C102.716 103.103 103.265 103.566 103.682 104.138C104.562 105.296 104.967 106.604 105.487 107.696C105.882 108.694 106.534 109.57 107.376 110.236C107.954 110.667 108.663 110.888 109.384 110.861C109.647 110.839 109.907 110.787 110.159 110.707Z" fill="#455A64"/>
<path d="M109.727 109.109C109.663 109.129 109.596 109.136 109.529 109.131C109.338 109.132 109.147 109.108 108.961 109.06C108.287 108.848 107.69 108.442 107.244 107.894C106.926 107.53 106.648 107.133 106.416 106.709C106.161 106.269 105.932 105.754 105.676 105.234C105.421 104.694 105.119 104.177 104.774 103.689C104.589 103.435 104.378 103.202 104.144 102.993C104.026 102.889 103.899 102.795 103.766 102.711C103.638 102.61 103.499 102.525 103.352 102.456C102.783 102.169 102.167 101.988 101.533 101.923C100.937 101.854 100.337 101.823 99.7368 101.831C98.7087 101.867 97.6793 101.839 96.6547 101.747C95.958 101.678 95.281 101.476 94.6601 101.153C94.4955 101.059 94.338 100.953 94.189 100.836C94.1331 100.801 94.0826 100.758 94.0393 100.708C94.0393 100.708 94.2727 100.849 94.6998 101.073C95.3225 101.358 95.9899 101.532 96.6723 101.589C97.6983 101.656 98.7273 101.667 99.7544 101.619C100.365 101.607 100.975 101.634 101.582 101.699C102.243 101.765 102.886 101.954 103.479 102.253C103.636 102.326 103.783 102.416 103.92 102.522C104.064 102.611 104.199 102.712 104.325 102.826C104.569 103.044 104.788 103.288 104.981 103.552C105.332 104.054 105.637 104.586 105.892 105.142C106.143 105.666 106.368 106.168 106.61 106.617C106.829 107.034 107.092 107.426 107.394 107.788C107.81 108.329 108.372 108.74 109.014 108.972C109.248 109.037 109.486 109.083 109.727 109.109Z" fill="#455A64"/>
<path d="M110.806 111.372C110.806 111.372 110.704 111.315 110.559 111.165C110.361 110.956 110.182 110.729 110.026 110.487C109.508 109.672 109.213 108.735 109.172 107.77C109.134 106.805 109.354 105.848 109.811 104.996C109.944 104.739 110.103 104.495 110.286 104.27C110.418 104.116 110.502 104.037 110.515 104.05C110.528 104.063 110.26 104.42 109.952 105.067C109.553 105.907 109.364 106.83 109.401 107.759C109.438 108.688 109.699 109.593 110.163 110.399C110.511 111.02 110.828 111.346 110.806 111.372Z" fill="#59856E"/>
</svg>
