<svg width="155" height="185" viewBox="0 0 155 185" fill="none" xmlns="http://www.w3.org/2000/svg">
<path d="M127.368 131.351L130.154 134.781L130.536 135.25L106.583 154.767L100.356 146.952L63.3626 177.106L68.3012 177.637L99.8181 151.948L106.045 159.767L132.765 137.99L132.931 138.196L135.717 141.621L139.246 130.086L127.368 131.351Z" fill="#59856E"/>
<path d="M145.633 57.0432C143.779 61.6731 140.45 65.5624 136.162 68.1087C131.874 70.6551 126.866 71.7163 121.913 71.1279L119.128 70.8283L119.15 70.6239C118.139 70.3737 117.147 70.0533 116.181 69.665C111.344 67.7286 107.322 64.1847 104.792 59.6301C102.263 55.0754 101.38 49.7882 102.292 44.6587C103.205 39.5293 105.857 34.871 109.803 31.4683C113.748 28.0655 118.745 26.1262 123.953 25.9769L123.976 25.7678L126.761 26.0674C130.263 26.4069 133.638 27.5568 136.619 29.426C139.6 31.2953 142.105 33.8326 143.936 36.8372C145.767 39.8419 146.873 43.2314 147.168 46.7376C147.463 50.2438 146.937 53.7704 145.633 57.0385L145.633 57.0432Z" fill="#59856E"/>
<path opacity="0.3" d="M145.633 57.0432C143.779 61.6731 140.45 65.5624 136.162 68.1087C131.874 70.6551 126.866 71.7163 121.913 71.1279L119.128 70.8283L119.15 70.6239C118.139 70.3737 117.147 70.0533 116.181 69.665C111.344 67.7286 107.322 64.1847 104.792 59.6301C102.263 55.0754 101.38 49.7882 102.292 44.6587C103.205 39.5293 105.857 34.871 109.803 31.4683C113.748 28.0655 118.745 26.1262 123.953 25.9769L123.976 25.7678L126.761 26.0674C130.263 26.4069 133.638 27.5568 136.619 29.426C139.6 31.2953 142.105 33.8326 143.936 36.8372C145.767 39.8419 146.873 43.2314 147.168 46.7376C147.463 50.2438 146.937 53.7704 145.633 57.0385L145.633 57.0432Z" fill="black"/>
<path d="M128.006 70.1005C140.029 66.6349 146.966 54.0792 143.5 42.0564C140.035 30.0336 127.479 23.0967 115.456 26.5622C103.433 30.0278 96.4964 42.5836 99.962 54.6064C103.428 66.6291 115.983 73.5661 128.006 70.1005Z" fill="#59856E"/>
<path d="M127.289 65.336C136.692 62.2666 141.825 52.1564 138.756 42.7542C135.687 33.3521 125.576 28.2184 116.174 31.2878C106.772 34.3572 101.638 44.4674 104.708 53.8696C107.777 63.2717 117.887 68.4054 127.289 65.336Z" fill="white"/>
<path d="M134.478 51.6301C136.301 44.5964 132.077 37.4167 125.043 35.5937C118.01 33.7707 110.83 37.9948 109.007 45.0284C107.184 52.0621 111.408 59.2418 118.442 61.0648C125.475 62.8878 132.655 58.6637 134.478 51.6301Z" fill="#59856E"/>
<path d="M129.868 50.4641C131.051 45.9729 128.368 41.3735 123.877 40.1911C119.386 39.0086 114.787 41.6909 113.604 46.1821C112.422 50.6733 115.104 55.2727 119.595 56.4551C124.086 57.6376 128.686 54.9553 129.868 50.4641Z" fill="white"/>
<path d="M120.371 51.7195C121.042 51.9879 121.778 52.0513 122.486 51.9015C123.193 51.7518 123.841 51.3957 124.346 50.8783C124.851 50.3608 125.191 49.7053 125.324 48.9944C125.456 48.2836 125.375 47.5494 125.091 46.8846C124.806 46.2198 124.331 45.6543 123.725 45.2595C123.119 44.8647 122.41 44.6584 121.687 44.6667C120.964 44.6749 120.26 44.8973 119.663 45.3057C119.066 45.7142 118.604 46.2904 118.335 46.9614C117.976 47.8626 117.988 48.8693 118.37 49.7611C118.752 50.6529 119.471 51.3571 120.371 51.7195Z" fill="#59856E"/>
<path d="M98.0134 31.7353L103.541 31.4885L103.299 25.9618C103.291 25.8838 103.3 25.805 103.324 25.7304C103.348 25.6558 103.387 25.5869 103.439 25.5279C103.49 25.4688 103.553 25.4209 103.624 25.3869C103.695 25.353 103.772 25.3338 103.85 25.3305C103.928 25.3272 104.007 25.3398 104.08 25.3676C104.153 25.3955 104.22 25.4379 104.276 25.4924C104.333 25.5469 104.378 25.6122 104.408 25.6845C104.438 25.7568 104.454 25.8345 104.453 25.9129L104.719 31.8846L106.641 33.6443L106.43 28.8134C106.423 28.6596 106.477 28.5093 106.581 28.3956C106.684 28.2819 106.829 28.214 106.983 28.207C107.137 28.1999 107.287 28.2542 107.401 28.358C107.514 28.4618 107.582 28.6065 107.589 28.7602L107.839 34.7541L110.268 36.9772L110.062 32.1468C110.058 32.0711 110.068 31.9954 110.094 31.924C110.119 31.8526 110.158 31.7869 110.209 31.7306C110.26 31.6744 110.321 31.6288 110.389 31.5964C110.458 31.564 110.532 31.5455 110.608 31.542C110.76 31.536 110.908 31.5898 111.021 31.6918C111.134 31.7938 111.203 31.9359 111.213 32.0879L111.493 38.0658L122.045 47.7356C122.699 48.407 122.147 49.1074 121.576 48.8776L110.599 38.8207L104.835 39.0757C104.681 39.0828 104.531 39.0284 104.417 38.9247C104.304 38.8209 104.236 38.6762 104.229 38.5224C104.222 38.3687 104.276 38.2184 104.38 38.1046C104.484 37.9909 104.628 37.9231 104.782 37.916L109.386 37.7141L106.957 35.491L101.198 35.7418C101.044 35.7489 100.894 35.6945 100.78 35.5908C100.667 35.487 100.599 35.3423 100.592 35.1885C100.585 35.0347 100.639 34.8845 100.743 34.7707C100.847 34.657 100.991 34.5892 101.145 34.5821L105.749 34.3802L103.828 32.6204L98.0644 32.8707C97.9863 32.878 97.9076 32.8693 97.833 32.8451C97.7584 32.821 97.6895 32.782 97.6304 32.7304C97.5714 32.6788 97.5234 32.6158 97.4895 32.5451C97.4555 32.4744 97.4363 32.3976 97.433 32.3192C97.4297 32.2409 97.4423 32.1627 97.4702 32.0894C97.498 32.0161 97.5404 31.9492 97.5949 31.8928C97.6494 31.8364 97.7148 31.7917 97.7871 31.7614C97.8593 31.731 97.9371 31.7157 98.0155 31.7163L98.0134 31.7353Z" fill="#263238"/>
<path d="M67.5447 28.9402C67.018 30.0146 66.4932 31.0941 65.9103 32.1457C65.5539 32.7861 65.1492 33.3906 64.7271 33.9909C64.3053 34.0775 63.8709 34.1197 63.4332 34.1166C63.5291 33.9598 63.66 33.8029 63.7576 33.668C64.2577 32.9523 64.7106 32.2117 65.114 31.4495C65.13 31.4233 65.0796 31.4075 65.0676 31.4271C64.6001 32.1917 64.061 32.926 63.5183 33.6416C63.4164 33.8083 63.2759 33.9479 63.145 34.1048C62.7321 34.0906 62.3198 34.0504 61.9113 33.9846C62.0482 33.8179 62.1794 33.6443 62.3105 33.479C62.6165 33.085 62.9168 32.684 63.1977 32.2737C63.7522 31.4651 64.2495 30.6271 64.6872 29.7639C64.7072 29.7312 64.6412 29.7079 64.6253 29.7341C64.1039 30.5868 63.5495 31.428 62.9623 32.2491C62.6818 32.6343 62.3954 33.0208 62.0993 33.3985C61.9544 33.5782 61.8017 33.7542 61.6529 33.9321C60.9087 33.7952 60.1758 33.6079 59.4612 33.3719C57.4017 32.702 55.5573 31.459 53.9795 30.116C52.5981 28.9662 51.5265 27.5694 50.8468 26.0326C51.7442 25.6929 52.5711 25.2354 53.2992 24.6756C53.3131 24.6527 53.294 24.6266 53.2704 24.6407C52.7203 24.9397 52.1588 25.2192 51.5859 25.4791C51.3132 25.5974 51.0348 25.7087 50.7584 25.8167L50.7322 25.7449C50.6702 25.5924 50.6103 25.4282 50.5351 25.2482C51.0877 25.0071 51.622 24.7376 52.1354 24.4411C52.872 24.0395 53.5613 23.5785 54.1944 23.0639C54.1989 23.0608 54.2027 23.057 54.2054 23.0526C54.2081 23.0482 54.2098 23.0433 54.2103 23.0382C54.2109 23.0332 54.2102 23.0281 54.2085 23.0231C54.2067 23.0182 54.2039 23.0136 54.2001 23.0096C54.1963 23.0055 54.1917 23.0021 54.1865 22.9996C54.1812 22.9971 54.1755 22.9954 54.1697 22.9947C54.1638 22.9941 54.1579 22.9944 54.1522 22.9957C54.1466 22.997 54.1414 22.9993 54.1369 23.0024C53.4254 23.4042 52.7312 23.8271 52.0178 24.2238C51.5109 24.5042 50.979 24.7514 50.4664 25.0164C50.3756 24.7652 50.3454 24.5025 50.3778 24.2451C50.4102 23.9877 50.5044 23.7412 50.6545 23.5211C50.9793 23.1887 51.381 22.9189 51.8356 22.7278C52.3072 22.4727 52.7461 22.1807 53.2004 21.9046C55.0982 20.7501 61.454 7.29942 67.32 9.35331C67.332 9.33371 73.1806 9.43385 74.894 12.2589C78.2485 17.7981 67.6756 31.9043 67.027 32.6621C66.5502 33.2213 65.8842 33.6372 65.1149 33.8562C65.464 33.3508 65.7827 32.8296 66.0699 32.2944C66.6488 31.1985 67.1574 30.074 67.5936 28.9257C67.5892 28.9235 67.5844 28.9222 67.5794 28.9218C67.5744 28.9214 67.5695 28.9218 67.5649 28.9232C67.5602 28.9246 67.556 28.9268 67.5525 28.9297C67.5491 28.9327 67.5464 28.9362 67.5447 28.9402Z" fill="#B09C62"/>
<path d="M65.8655 9.80299C65.0073 9.95259 64.2016 10.2616 63.5028 10.7092C62.8 11.1443 62.1559 11.6459 61.5818 12.2051C60.4251 13.319 59.3888 14.524 58.4854 15.8057C57.5716 17.0879 56.7309 18.4173 55.7683 19.6959C55.2802 20.333 54.723 20.927 54.1039 21.47C53.485 22.0169 52.72 22.4228 51.8729 22.6539C52.6718 22.3545 53.3805 21.9047 53.9493 21.3361C54.526 20.7779 55.0393 20.172 55.4823 19.5265C56.405 18.2525 57.2081 16.9011 58.1438 15.6134C59.0565 14.3091 60.1253 13.0948 61.333 11.9901C61.9462 11.4399 62.6309 10.9535 63.3742 10.5402C64.1225 10.1292 64.9751 9.87688 65.8655 9.80299Z" fill="#B09C62"/>
<path d="M32.2585 173.661L31.7831 173.61L33.332 159.213L49.9255 160.998L51.4514 146.814L68.0497 148.6L69.5735 134.435L86.167 136.22L87.6929 122.037L104.291 123.823L105.814 109.663L122.408 111.448L123.934 97.2642L140.765 99.0749L140.714 99.5502L124.358 97.7906L122.834 111.955L122.594 111.949L106.239 110.189L104.715 124.349L88.1171 122.563L86.5932 136.728L86.3535 136.721L69.9977 134.962L68.4739 149.126L51.8756 147.341L50.3523 161.501L50.1121 161.499L33.7562 159.739L32.2585 173.661Z" fill="#263238"/>
<path d="M144.048 99.6685L140.371 102.735L141.108 95.8903L144.048 99.6685Z" fill="#263238"/>
<path d="M70.5354 32.8879C71.398 35.5964 72.2022 38.3563 73.0194 41.0839L74.2205 45.1607C74.6348 46.4939 75.0345 47.8735 75.4715 49.0409C75.5942 49.4676 75.7882 49.8705 76.0453 50.2325C76.4114 50.7429 76.8049 51.233 77.224 51.7008C78.0755 52.7252 79.0673 53.7407 80.0386 54.7684L86.0041 60.9059L83.941 63.5016C81.4447 61.9445 79.0385 60.3105 76.6977 58.5152C75.5199 57.6192 74.3705 56.6829 73.2155 55.6643C72.6057 55.1238 72.0253 54.5509 71.4768 53.9483C71.1317 53.5725 70.8165 53.1705 70.5339 52.7457L70.3104 52.3659L70.1387 52.0397C70.0228 51.8205 69.9452 51.6486 69.8468 51.4457C69.4947 50.6962 69.204 50.0014 68.9186 49.3024C68.6332 48.6033 68.361 47.9153 68.1083 47.2246C67.5983 45.8426 67.102 44.467 66.6305 43.0844C65.7017 40.3207 64.8489 37.5652 64.0995 34.7439L70.5354 32.8879Z" fill="#FCCAC3"/>
<path d="M70.452 32.4558L73.9919 41.2511C72.5095 43.9023 70.3314 46.0986 67.6925 47.603L64.9206 43.6025L70.452 32.4558Z" fill="#59856E"/>
<g opacity="0.5">
<path d="M70.452 32.4558L73.9919 41.2511C72.5095 43.9023 70.3314 46.0986 67.6925 47.603L64.9206 43.6025L70.452 32.4558Z" fill="white"/>
</g>
<path d="M70.3607 22.4449C70.278 22.6778 70.1282 22.8809 69.93 23.0284C69.7318 23.176 69.4943 23.2615 69.2475 23.2739C69.0008 23.2863 68.7558 23.2252 68.5438 23.0983C68.3318 22.9714 68.1623 22.7844 68.0567 22.5611C67.9511 22.3377 67.9142 22.088 67.9506 21.8436C67.9871 21.5992 68.0953 21.3712 68.2615 21.1883C68.4277 21.0055 68.6445 20.8762 68.8843 20.8167C69.1241 20.7572 69.3762 20.7703 69.6086 20.8542C69.9187 20.9662 70.1718 21.1964 70.3127 21.4944C70.4536 21.7925 70.4709 22.1342 70.3607 22.4449Z" fill="white"/>
<path d="M39.3981 150.605L39.0614 156.103L41.9847 156.417L43.2387 151.018L39.3981 150.605Z" fill="#FCCAC3"/>
<path d="M49.6748 161.139C49.8665 159.357 49.2013 158.747 48.2288 158.579C47.2563 158.412 43.8302 156.827 43.8302 156.827C43.8302 156.827 43.3007 155.626 42.6794 155.323C42.058 155.021 41.2671 155.624 41.2671 155.624L39.4754 155.205C39.4754 155.205 39.0875 154.341 38.5688 155.006C37.7557 156.039 37.1987 159.071 37.093 159.786L49.6748 161.139Z" fill="#59856E"/>
<path d="M49.5326 160.672L47.2511 160.426L37.275 159.3C37.1466 159.286 37.2098 159.101 37.3377 159.12L38.0126 159.192C38.0126 159.192 38.0126 159.192 38.0157 159.164C38.198 158.991 38.3404 158.78 38.433 158.546C38.5256 158.313 38.5662 158.062 38.552 157.811C38.5378 157.56 38.4692 157.315 38.3508 157.093C38.2324 156.872 38.0672 156.678 37.8666 156.527C37.7729 156.459 37.9334 156.308 38.0218 156.38C38.8646 157.038 39.0486 158.188 38.1985 159.207L39.6245 159.361L49.6006 160.487C49.7237 160.505 49.6557 160.69 49.5326 160.672Z" fill="black"/>
<path d="M43.1179 157.549C43.7575 157.012 44.5507 156.924 45.0107 157.43C45.0833 157.515 45.239 157.364 45.1659 157.284C44.637 156.703 43.7098 156.829 42.9808 157.438C42.875 157.528 43.0121 157.638 43.1179 157.549Z" fill="white"/>
<path d="M44.0961 157.976C44.7357 157.439 45.5288 157.351 45.9883 157.862C46.0615 157.942 46.2172 157.791 46.1441 157.711C45.6152 157.13 44.688 157.256 43.9637 157.866C43.8579 157.955 43.9903 158.066 44.0961 157.976Z" fill="white"/>
<path d="M45.0832 158.409C45.7233 157.868 46.516 157.785 46.976 158.291C47.0491 158.371 47.2049 158.219 47.127 158.139C46.6028 157.558 45.6757 157.685 44.9466 158.294C44.8408 158.383 44.9779 158.494 45.0832 158.409Z" fill="white"/>
<path d="M63.4268 61.689C63.4268 61.689 62.1955 70.8556 59.9125 83.674C59.4677 86.1553 58.9832 88.7813 58.4642 91.5047C57.3753 97.1574 56.1262 103.226 54.7196 109.373C51.3238 124.178 43.2617 152.323 43.2617 152.323L38.7211 151.936C38.7211 151.936 37.0192 125.788 43.8164 108.551C43.8378 105.447 43.8958 102.54 43.9924 99.8095C44.1811 92.3806 44.8178 84.97 45.8989 77.6178C45.947 77.171 46.0368 76.7383 46.1066 76.3131C46.2261 75.6047 46.3525 74.9211 46.4759 74.266C46.6728 73.1958 46.8857 72.1993 47.091 71.2742C49.0534 62.643 51.1544 60.3206 51.1544 60.3206L63.4268 61.689Z" fill="#263238"/>
<g opacity="0.2">
<path d="M59.9125 83.6741C59.4677 86.1553 58.9832 88.7814 58.4643 91.5047C54.2937 87.3201 48.8269 80.0341 46.1066 76.3131C46.2261 75.6048 46.3525 74.9212 46.4759 74.2661L59.9125 83.6741Z" fill="black"/>
</g>
<path d="M67.8156 125.524L73.2891 125.954C77.7124 112.236 88.6677 86.3828 84.8941 81.861C71.6577 65.9883 44.4629 56.2398 44.4629 56.2398C41.0207 56.5474 38.4746 57.3313 37.3848 60.4885C36.2616 63.7334 36.2479 68.2853 39.9956 71.5734C42.2844 73.5843 45.2592 75.0727 51.1691 78.5983C56.9313 82.1315 62.9499 85.2284 69.1745 87.863C71.6247 88.9104 72.4436 89.2533 73.7743 89.8004C69.8002 99.8355 68.2149 121.499 67.8156 125.524Z" fill="#263238"/>
<path d="M68.6323 125.261L68.0079 130.44L70.9264 130.754L72.4777 125.675L68.6323 125.261Z" fill="#FCCAC3"/>
<path d="M73.8837 127.489L74.4625 125.595L67.3992 124.835L67.1578 126.766L73.8837 127.489Z" fill="#263238"/>
<path d="M78.6186 135.5C78.8109 133.713 78.1409 133.102 77.1727 132.94C76.2044 132.778 72.7699 131.183 72.7699 131.183C72.7699 131.183 72.2451 129.982 71.6185 129.684C70.9918 129.385 70.2115 129.979 70.2115 129.979L68.4193 129.565C68.4193 129.565 68.0319 128.697 67.5132 129.362C66.7001 130.395 66.1426 133.432 66.0369 134.146L78.6186 135.5Z" fill="#59856E"/>
<path d="M78.4792 135.009L76.1976 134.763L66.221 133.642C66.0926 133.628 66.1564 133.438 66.2842 133.456L66.9592 133.529C66.9569 133.519 66.958 133.509 66.9622 133.5C67.1445 133.327 67.2869 133.117 67.3795 132.883C67.4721 132.65 67.5127 132.399 67.4986 132.148C67.4844 131.897 67.4157 131.652 67.2973 131.43C67.179 131.209 67.0137 131.015 66.8131 130.864C66.7194 130.796 66.8799 130.645 66.9684 130.717C67.8064 131.375 67.9952 132.525 67.1445 133.549L68.5705 133.702L78.5466 134.828C78.6702 134.842 78.6022 135.027 78.4792 135.009Z" fill="black"/>
<path d="M72.0639 131.89C72.7039 131.349 73.4971 131.261 73.9566 131.772C74.0298 131.852 74.1855 131.7 74.1076 131.62C73.5835 131.039 72.6563 131.166 71.9273 131.775C71.8214 131.864 71.9586 131.975 72.0639 131.89Z" fill="white"/>
<path d="M73.0278 132.316C73.6679 131.774 74.4606 131.691 74.9206 132.198C74.9937 132.278 75.1489 132.131 75.0763 132.046C74.5474 131.465 73.6198 131.596 72.8954 132.206C72.7849 132.295 72.9225 132.401 73.0278 132.316Z" fill="white"/>
<path d="M74.0249 132.746C74.6693 132.209 75.4624 132.121 75.9225 132.628C75.9956 132.708 76.1461 132.56 76.0729 132.48C75.5493 131.895 74.6216 132.026 73.8926 132.635C73.7868 132.725 73.9191 132.835 74.0249 132.746Z" fill="white"/>
<path d="M43.4947 153.421L44.1443 151.538L38.1268 150.891L37.9619 152.825L43.4947 153.421Z" fill="#263238"/>
<path d="M37.5979 58.4631C46.3703 63.8064 62.7727 66.5182 63.3417 64.358C64.9571 58.2811 64.5703 50.9261 66.2036 47.0966C71.566 45.029 68.77 41.3865 70.3876 36.8532C70.9776 35.1914 70.9035 33.366 70.1808 31.7574C69.4581 30.1488 68.1426 28.8812 66.5083 28.2186C65.7259 27.894 64.9101 27.5658 64.1066 27.2582L63.616 27.0804C61.4488 26.3132 59.2335 25.6894 56.9844 25.213C56.1681 25.0242 55.3127 24.8409 54.4251 24.6444C53.5375 24.4479 52.66 24.291 51.8276 24.163C51.0927 24.0431 50.3411 24.0753 49.6192 24.2576C48.8974 24.4399 48.2206 24.7685 47.6308 25.2229C47.0411 25.6774 46.5509 26.248 46.1906 26.8996C45.8303 27.5511 45.6075 28.2697 45.5361 29.0108C45.2009 33.2488 44.5872 37.4601 43.6991 41.6175C43.5152 42.4776 43.3254 43.3035 43.1233 44.1088C42.433 46.9543 41.5555 49.7511 40.4965 52.481C40.48 52.533 40.46 52.5838 40.4369 52.6332C40 53.7146 39.5601 54.7042 39.1173 55.6022C38.9811 55.8856 38.8416 56.1543 38.6983 56.413C38.4146 56.9498 37.9091 57.9388 37.5979 58.4631Z" fill="#59856E"/>
<g opacity="0.3">
<path d="M37.5979 58.4631C46.3703 63.8064 62.7727 66.5182 63.3417 64.358C64.9571 58.2811 64.5703 50.9261 66.2036 47.0966C71.566 45.029 68.77 41.3865 70.3876 36.8532C70.9776 35.1914 70.9035 33.366 70.1808 31.7574C69.4581 30.1488 68.1426 28.8812 66.5083 28.2186C65.7259 27.894 64.9101 27.5658 64.1066 27.2582L63.616 27.0804C61.4488 26.3132 59.2335 25.6894 56.9844 25.213C56.1681 25.0242 55.3127 24.8409 54.4251 24.6444C53.5375 24.4479 52.66 24.291 51.8276 24.163C51.0927 24.0431 50.3411 24.0753 49.6192 24.2576C48.8974 24.4399 48.2206 24.7685 47.6308 25.2229C47.0411 25.6774 46.5509 26.248 46.1906 26.8996C45.8303 27.5511 45.6075 28.2697 45.5361 29.0108C45.2009 33.2488 44.5872 37.4601 43.6991 41.6175C43.5152 42.4776 43.3254 43.3035 43.1233 44.1088C42.433 46.9543 41.5555 49.7511 40.4965 52.481C40.48 52.533 40.46 52.5838 40.4369 52.6332C40 53.7146 39.5601 54.7042 39.1173 55.6022C38.9811 55.8856 38.8416 56.1543 38.6983 56.413C38.4146 56.9498 37.9091 57.9388 37.5979 58.4631Z" fill="white"/>
</g>
<path d="M40.1927 30.3208C40.1927 30.3208 44.975 23.2767 50.3012 24.1382C53.7041 24.687 52.4392 31.9749 48.0387 37.079C44.6452 35.2811 42.1807 33.2946 40.1927 30.3208Z" fill="#59856E"/>
<g opacity="0.5">
<path d="M40.1927 30.3208C40.1927 30.3208 44.975 23.2767 50.3012 24.1382C53.7041 24.687 52.4392 31.9749 48.0387 37.079C44.6452 35.2811 42.1807 33.2946 40.1927 30.3208Z" fill="white"/>
</g>
<path d="M57.0082 25.2156C58.3538 29.7358 63.1464 33.3672 63.1464 33.3672C64.2827 31.744 64.7223 28.8198 64.1346 27.266L63.644 27.0883C61.4758 26.3182 59.259 25.6926 57.0082 25.2156Z" fill="#FCCAC3"/>
<path d="M63.9233 28.4694C63.9264 28.5383 63.9402 28.6063 63.9642 28.6709C64.4532 30.0699 63.352 31.0092 62.0465 30.5851C61.92 30.5474 61.7965 30.5004 61.677 30.4443C61.2198 30.2362 60.8385 29.891 60.586 29.4567C59.8168 28.1219 58.9459 26.8483 57.9811 25.6472C60.2295 25.038 61.8419 21.4034 62.5786 19.0689L64.7642 23.7372L65.1373 24.739C64.7408 25.1527 64.3959 25.6129 64.1099 26.1094C63.8883 26.4576 63.7553 26.8547 63.7228 27.2662C63.6903 27.6776 63.7591 28.0908 63.9233 28.4694Z" fill="#FCCAC3"/>
<g opacity="0.2">
<path d="M64.1204 26.101C64.4064 25.6045 64.7514 25.1443 65.1478 24.7306L64.7747 23.7288L62.8136 23.3207C62.9276 24.3671 63.3875 25.3455 64.1204 26.101Z" fill="black"/>
</g>
<path d="M62.9915 14.6945C61.7759 18.5306 61.1812 20.1254 62.2964 22.7649C63.9754 26.7344 68.862 27.3467 71.1799 23.9466C73.2646 20.882 74.9033 15.125 71.8803 12.2514C68.8574 9.37781 64.2072 10.8585 62.9915 14.6945Z" fill="#FCCAC3"/>
<path d="M68.1563 16.4763C68.1804 16.4906 68.2073 16.4995 68.2352 16.5025C68.263 16.5055 68.2912 16.5025 68.3179 16.4937C68.5499 16.3794 68.8055 16.3213 69.0642 16.3241C69.3228 16.3268 69.5772 16.3904 69.8067 16.5096C69.8299 16.525 69.8559 16.5355 69.8832 16.5405C69.9106 16.5455 69.9387 16.545 69.9658 16.5388C69.9929 16.5327 70.0185 16.5211 70.041 16.5048C70.0635 16.4885 70.0825 16.4678 70.0968 16.4439C70.1111 16.4201 70.1203 16.3936 70.1241 16.3661C70.1278 16.3385 70.126 16.3105 70.1186 16.2837C70.1112 16.2569 70.0984 16.2319 70.0811 16.2101C70.0638 16.1884 70.0422 16.1704 70.0177 16.1572C69.7294 16.0026 69.4084 15.9189 69.0812 15.913C68.7541 15.907 68.4303 15.9791 68.1365 16.1232C68.1114 16.1337 68.0887 16.1495 68.07 16.1693C68.0513 16.1892 68.0369 16.2127 68.0278 16.2384C68.0187 16.2642 68.0151 16.2915 68.0171 16.3187C68.0192 16.3459 68.0269 16.3724 68.0398 16.3964C68.065 16.4428 68.1052 16.4793 68.1537 16.5001" fill="#263238"/>
<path d="M73.2541 18.1643C73.2761 18.1723 73.2996 18.1756 73.3229 18.1739C73.3463 18.1723 73.3691 18.1658 73.3897 18.1548C73.4119 18.1449 73.4319 18.1305 73.4485 18.1127C73.465 18.0949 73.4778 18.0739 73.4861 18.051C73.4944 18.0281 73.498 18.0038 73.4967 17.9795C73.4955 17.9552 73.4893 17.9314 73.4786 17.9096C73.3573 17.6411 73.173 17.4059 72.9416 17.2236C72.7101 17.0414 72.4382 16.9176 72.1488 16.8625C72.1248 16.8593 72.1003 16.8609 72.0769 16.8673C72.0535 16.8737 72.0316 16.8847 72.0125 16.8997C71.9934 16.9146 71.9775 16.9333 71.9657 16.9545C71.954 16.9757 71.9466 16.9991 71.944 17.0232C71.9408 17.0473 71.9424 17.0717 71.9488 17.0951C71.9551 17.1185 71.9661 17.1404 71.9811 17.1595C71.9961 17.1786 72.0147 17.1945 72.036 17.2063C72.0572 17.218 72.0806 17.2254 72.1047 17.228C72.332 17.2768 72.5446 17.3785 72.7252 17.5249C72.9058 17.6714 73.0493 17.8584 73.144 18.0707C73.1552 18.0928 73.1707 18.1125 73.1896 18.1286C73.2085 18.1447 73.2304 18.1568 73.2541 18.1643Z" fill="#263238"/>
<path d="M69.7704 22.6121C69.7704 22.6121 68.0691 21.3088 67.8415 20.3852C67.8415 20.3852 67.2087 21.798 68.0862 22.58C68.3105 22.7979 68.6093 22.9224 68.922 22.9284C69.2346 22.9343 69.5379 22.8213 69.7704 22.6121Z" fill="white"/>
<path d="M68.8028 18.2432C68.6835 18.5477 68.7368 18.8563 68.9493 18.9369C69.1618 19.0175 69.4083 18.8276 69.5281 18.5183C69.6479 18.2091 69.594 17.9052 69.3768 17.8241C69.1595 17.743 68.9226 17.9339 68.8028 18.2432Z" fill="#263238"/>
<path d="M71.8492 19.5133C71.7299 19.8178 71.7832 20.1265 71.9962 20.2023C72.2093 20.2781 72.4504 20.0925 72.5702 19.7832C72.69 19.474 72.6362 19.1701 72.4232 19.0943C72.2101 19.0185 71.9642 19.2036 71.8492 19.5133Z" fill="#263238"/>
<path d="M72.3286 19.0793L73.1414 19.1667C73.1414 19.1667 72.5437 19.5832 72.3286 19.0793Z" fill="#263238"/>
<path d="M70.7095 18.7993C70.7095 18.7993 70.9227 19.8127 71.2226 20.7345C71.2484 20.8041 71.2576 20.8789 71.2494 20.9527C71.2413 21.0265 71.2161 21.0975 71.1758 21.1599C71.1355 21.2223 71.0812 21.2744 71.0172 21.3122C70.9532 21.3499 70.8813 21.3722 70.8072 21.3774C70.4493 21.4033 70.0895 21.3887 69.7348 21.3341L70.7095 18.7993Z" fill="#D5A29B"/>
<path d="M60.6616 16.7759C60.6793 17.1417 60.7744 17.4996 60.9408 17.8258C61.1071 18.152 61.3408 18.4392 61.6264 18.6684C62.3691 19.2291 63.134 18.4652 63.2577 17.4495C63.3564 16.5321 63.1161 15.1456 62.2128 15.0051C61.3096 14.8647 60.5943 15.7926 60.6631 16.7617" fill="#FCCAC3"/>
<path d="M62.0924 18.6271C62.0821 18.7221 62.0435 18.8118 61.9817 18.8847C61.9199 18.9575 61.8377 19.0102 61.7457 19.0359C61.6536 19.0616 61.556 19.0591 61.4654 19.0287C61.3748 18.9984 61.2954 18.9416 61.2373 18.8657C61.1793 18.7898 61.1454 18.6982 61.1399 18.6029C61.1344 18.5075 61.1576 18.4126 61.2066 18.3306C61.2555 18.2485 61.3279 18.183 61.4144 18.1425C61.501 18.1019 61.5977 18.0883 61.692 18.1032C61.8133 18.1225 61.9225 18.1876 61.997 18.2851C62.0716 18.3826 62.1057 18.5051 62.0924 18.6271Z" fill="white"/>
<path d="M69.2722 17.8128L70.085 17.9002C70.085 17.9002 69.492 18.3173 69.2722 17.8128Z" fill="#263238"/>
<path d="M110 92.9715L124.562 97.3221L116.984 84.1448L110 92.9715Z" fill="#59856E"/>
<g opacity="0.6">
<path d="M116.984 84.1448L122.363 93.4985L124.562 97.3221L120.383 96.0791L109.995 92.971L116.984 84.1448Z" fill="white"/>
</g>
<path d="M122.363 93.4985L124.562 97.3221L120.369 96.0776C120.968 95.1693 121.635 94.3072 122.363 93.4985Z" fill="#263238"/>
<path d="M29.1585 14.6273L116.984 84.1448L119.013 87.676L114.653 87.0867L116.434 90.9951L112.326 90.0291L113.643 94.0606L109.995 92.971L22.1751 23.4492L29.1585 14.6273Z" fill="#59856E"/>
<path d="M29.1609 14.6177L22.1738 23.4457L26.4735 26.8488L33.4605 18.0208L29.1609 14.6177Z" fill="#263238"/>
<path d="M19.9559 16.0087L21.4127 14.1681C22.146 13.2415 23.2175 12.6442 24.3912 12.5076C25.565 12.3709 26.7449 12.7062 27.6715 13.4395L29.171 14.6263L22.184 23.4543L20.6845 22.2675C19.7579 21.5342 19.1606 20.4628 19.024 19.289C18.8873 18.1152 19.2226 16.9353 19.9559 16.0087Z" fill="#59856E"/>
<g opacity="0.6">
<path d="M19.9559 16.0087L21.4127 14.1682C22.146 13.2416 23.2175 12.6443 24.3912 12.5076C25.565 12.371 26.7449 12.7062 27.6715 13.4396L29.171 14.6263L22.184 23.4543L20.6845 22.2676C19.7579 21.5342 19.1606 20.4628 19.024 19.289C18.8873 18.1153 19.2226 16.9353 19.9559 16.0087Z" fill="white"/>
</g>
<path d="M112.269 89.9797C112.245 90.0085 112.211 90.0273 112.174 90.0322C112.137 90.0372 112.1 90.0279 112.069 90.0063L28.6955 24.0257C28.6656 24.0014 28.6466 23.9663 28.6426 23.928C28.6386 23.8897 28.65 23.8513 28.6742 23.8214C28.6985 23.7915 28.7336 23.7725 28.7719 23.7685C28.8102 23.7645 28.8485 23.7759 28.8784 23.8001L112.247 89.785C112.275 89.8078 112.294 89.8412 112.298 89.8777C112.302 89.9142 112.292 89.9509 112.269 89.9797Z" fill="#263238"/>
<path d="M114.6 87.0426C114.575 87.0717 114.54 87.0905 114.502 87.0953C114.464 87.1001 114.426 87.0906 114.395 87.0686L31.0409 21.0853C31.0117 21.0606 30.9931 21.0256 30.9892 20.9875C30.9852 20.9494 30.9961 20.9113 31.0196 20.8811C31.031 20.8662 31.0453 20.8537 31.0617 20.8445C31.078 20.8353 31.096 20.8295 31.1147 20.8275C31.1333 20.8254 31.1522 20.8272 31.1702 20.8326C31.1881 20.8381 31.2048 20.8472 31.2191 20.8593L114.571 86.8616C114.597 86.8831 114.614 86.9133 114.619 86.9467C114.625 86.98 114.618 87.0141 114.6 87.0426Z" fill="#263238"/>
<path d="M57.9382 50.1357C57.4389 50.308 56.9653 50.4638 56.4881 50.6096C56.2091 50.6998 55.9359 50.781 55.658 50.8617C54.898 51.0877 54.1343 51.3036 53.3636 51.4948C51.8308 51.8876 50.2761 52.2156 48.6933 52.4925C47.0811 52.772 45.4552 52.9663 43.8225 53.0744C42.9843 53.1333 42.137 53.1431 41.25 53.1198C40.412 53.1079 39.5764 53.0261 38.752 52.8751L38.4456 52.8181C38.0565 52.7331 37.6842 52.5842 37.3438 52.3774C36.9106 52.1118 36.5361 51.7607 36.2432 51.3454C35.9233 50.8811 35.7048 50.3546 35.6016 49.8003C35.5096 49.3221 35.4797 48.8341 35.5126 48.3482C35.5497 47.7906 35.6286 47.2366 35.7486 46.6908C35.9282 45.8224 36.1522 44.9638 36.4196 44.1184C36.9155 42.5033 37.455 40.9746 38.029 39.4833C38.3696 38.5968 38.6996 37.7187 39.082 36.8463L44.7492 41.3314C44.6534 41.5519 44.565 41.7924 44.4802 41.9997C43.9239 43.4159 43.3682 44.8275 42.9073 46.2059C42.8363 46.4195 42.7652 46.633 42.6994 46.8423C43.0607 46.8812 43.4314 46.9211 43.8048 46.9372C45.2363 47.0383 46.6776 47.0491 48.187 47.0528C49.4134 47.0501 50.6519 47.0247 51.8981 46.9712L52.7037 46.9473L57.2598 46.7883L57.9382 50.1357Z" fill="#FCCAC3"/>
<path d="M56.8961 46.8165C56.8961 46.8165 60.931 46.0052 61.7664 46.2393C62.6759 46.5007 61.8798 51.3531 60.6296 51.935C59.3794 52.5169 56.7903 50.0795 56.7903 50.0795L56.8961 46.8165Z" fill="#FCCAC3"/>
<path d="M56.8963 46.8599C57.4128 46.3372 58.0371 45.9334 58.7257 45.6767C59.6318 45.4328 60.4802 44.9663 60.8736 45.1529C61.267 45.3395 59.6841 46.5107 59.6841 46.5107L56.8963 46.8599Z" fill="#FCCAC3"/>
<path d="M61.7475 46.2374C61.7475 46.2374 64.1019 47.1014 64.7919 48.1517C65.4819 49.202 63.3712 48.4412 63.3712 48.4412C63.3712 48.4412 65.8156 49.5408 64.6368 51.3805C64.0593 52.2801 61.1481 52.2554 59.8315 51.9791C59.8268 51.9786 60.1737 47.9049 61.7475 46.2374Z" fill="#FCCAC3"/>
<path d="M83.5917 56.4681C83.5917 56.4681 83.5604 56.133 82.6708 55.8209C82.0705 55.5838 81.428 55.4721 80.7828 55.4928L82.8397 57.1565C82.8397 57.1565 82.3881 59.0745 83.3402 60.0568C85.253 62.032 86.9858 61.1655 87.4778 60.8385C87.9697 60.5116 87.4002 58.7434 86.1842 57.6221C85.4715 56.9612 84.5597 56.5554 83.5917 56.4681Z" fill="#FCCAC3"/>
<path d="M63.3748 16.6766C64.0254 16.8182 66.09 15.7599 66.8146 13.1138C66.8146 13.1138 65.97 15.4311 65.6709 15.7273C65.3718 16.0235 66.8273 15.1244 67.4461 13.0038C68.1135 13.7019 68.8836 14.3214 69.7326 14.8431C70.8447 15.4476 71.5726 15.633 71.6753 15.5848C71.778 15.5365 70.1542 14.5922 69.799 13.9982C69.799 13.9982 72.6353 16.1055 74.0652 16.5942C74.231 16.6467 75.1798 13.7485 73.2501 11.8866C71.3205 10.0246 67.4185 10.4165 66.2572 10.9629C66.2572 10.9629 65.7365 10.8432 64.1553 11.935C62.5741 13.0269 62.6705 16.5245 63.3748 16.6766Z" fill="#B09C62"/>
</svg>
