<svg width="11" height="11" viewBox="0 0 11 11" fill="none" xmlns="http://www.w3.org/2000/svg">
<path d="M5.5 0.5C2.7375 0.5 0.5 2.7375 0.5 5.5C0.5 8.2625 2.7375 10.5 5.5 10.5C8.2625 10.5 10.5 8.2625 10.5 5.5C10.5 2.7375 8.2625 0.5 5.5 0.5ZM5.5 1.75C5.9125 1.75 6.3 1.8625 6.675 1.9875C6.4125 2.2375 6.1125 2.4625 6.1625 2.6875C6.2125 2.9125 7.025 2.85 7.025 3.3125C7.025 3.65 6.5 3.75 6.8625 4.1375C7.3 4.575 6.0625 5.3625 6.0375 5.9375C6 6.975 7.0875 7.15 7.95 7.15C8.475 7.15 8.6125 7.4 8.575 7.7C7.9 8.6625 6.75 9.2625 5.4875 9.2625C5.0125 9.2625 4.575 9.15 4.1625 8.9875C4.4375 8.4375 3.8125 7.35 3.225 7C2.9375 6.7125 2.325 6.825 1.975 6.6875C1.8625 6.35 1.75 6.0125 1.7375 5.6375C1.775 5.575 1.8375 5.525 1.9375 5.525C2.175 5.525 2.5 6 2.675 5.95C2.9 5.9 1.75 4.3125 2.2875 4C2.5375 3.85 3.0375 4.4875 2.875 3.8C2.725 3.1625 3.325 3.45 3.7 3.2875C4.025 3.15 4.2625 2.775 3.8625 2.55C3.7875 2.5125 3.7 2.425 3.5875 2.3125C4.15 1.975 4.8 1.7625 5.5 1.7625V1.75ZM8.3875 3.1125C8.6125 3.3875 8.7875 3.6875 8.9375 4.0125V4.05C8.8875 4.1375 8.8 4.1875 8.6625 4.325C8.3125 4.675 8.2625 4.0625 8.1125 3.9375C7.95 3.7875 7.3625 3.9625 7.2875 3.775C7.2 3.55 7.9125 3.25 8.3875 3.1125Z" fill="#59856E"/>
</svg>
