<svg width="11" height="11" viewBox="0 0 11 11" fill="none" xmlns="http://www.w3.org/2000/svg">
<path d="M7.84963 0.5159C7.62406 0.528431 7.3985 0.553494 7.18546 0.628682C6.84712 0.753995 6.5213 0.941965 6.24561 1.21765C6.16629 1.26794 6.09929 1.33541 6.04956 1.41508C5.99983 1.49476 5.96865 1.58459 5.95832 1.67794C5.94799 1.77129 5.95877 1.86576 5.98988 1.95438C6.02099 2.043 6.07162 2.12349 6.13803 2.1899C6.20444 2.25631 6.28493 2.30694 6.37355 2.33805C6.46217 2.36916 6.55664 2.37994 6.64999 2.36962C6.74334 2.35929 6.83317 2.3281 6.91285 2.27837C6.99252 2.22864 7.05999 2.16164 7.11028 2.08232C7.24812 1.94447 7.41103 1.86928 7.58647 1.80663C8.02506 1.65625 8.56391 1.71891 8.91479 2.08232C9.40351 2.57104 9.40351 3.38557 8.91479 3.88683L7.03509 5.76653C6.48371 6.3179 6.03258 6.36803 5.70677 6.3555C5.38095 6.34297 5.19298 6.19259 5.19298 6.19259C5.12057 6.15145 5.04077 6.12497 4.95813 6.11467C4.87549 6.10437 4.79163 6.11045 4.71134 6.13256C4.63105 6.15467 4.5559 6.19238 4.49018 6.24353C4.42446 6.29468 4.36946 6.35828 4.32832 6.43069C4.28718 6.5031 4.2607 6.5829 4.2504 6.66554C4.2401 6.74818 4.24618 6.83204 4.26829 6.91233C4.2904 6.99262 4.32811 7.06777 4.37926 7.13349C4.43041 7.19921 4.49401 7.25421 4.56642 7.29535C4.56642 7.29535 4.99248 7.57104 5.61905 7.60863C6.24561 7.64623 7.12281 7.40813 7.88722 6.63119L9.76692 4.75149C10.7444 3.77405 10.7444 2.1951 9.76692 1.23019C9.41604 0.879308 9.00251 0.666276 8.55138 0.566025C8.32582 0.5159 8.07519 0.5159 7.84963 0.528431V0.5159ZM5.34336 3.41064C4.71679 3.38557 3.85213 3.59861 3.11278 4.35049L1.23308 6.23019C0.255639 7.20763 0.255639 8.78658 1.23308 9.75149C1.93484 10.4532 2.93734 10.6537 3.81454 10.3405C4.15288 10.2151 4.4787 10.0272 4.75439 9.75149C4.83371 9.70121 4.90071 9.63373 4.95044 9.55406C5.00017 9.47439 5.03136 9.38455 5.04169 9.29121C5.05201 9.19786 5.04123 9.10338 5.01012 9.01476C4.97901 8.92614 4.92838 8.84565 4.86197 8.77924C4.79556 8.71283 4.71507 8.6622 4.62645 8.63109C4.53783 8.59999 4.44336 8.5892 4.35001 8.59953C4.25666 8.60986 4.16683 8.64104 4.08715 8.69077C4.00748 8.7405 3.94001 8.8075 3.88972 8.88683C3.75188 9.02467 3.58897 9.09986 3.41353 9.16252C2.97494 9.31289 2.43609 9.25024 2.08521 8.88683C1.59649 8.39811 1.59649 7.58357 2.08521 7.08232L3.96491 5.20262C4.46617 4.70136 4.90476 4.63871 5.25564 4.65124C5.60652 4.66377 5.84461 4.76402 5.84461 4.76402C5.91803 4.81909 6.00265 4.85735 6.09249 4.87611C6.18233 4.89486 6.27519 4.89366 6.36451 4.87257C6.45383 4.85149 6.53742 4.81104 6.60939 4.75408C6.68135 4.69713 6.73993 4.62506 6.78097 4.54298C6.82201 4.46089 6.84452 4.37079 6.84691 4.27905C6.84929 4.1873 6.83149 4.09616 6.79477 4.01205C6.75805 3.92794 6.70329 3.85293 6.63439 3.79231C6.56548 3.7317 6.48409 3.68696 6.39599 3.66126C6.39599 3.66126 5.96993 3.41064 5.34336 3.38557V3.41064Z" fill="#59856E"/>
</svg>
