<svg width="11" height="11" viewBox="0 0 11 11" fill="none" xmlns="http://www.w3.org/2000/svg">
<path d="M9.59091 0.399994H1.40909C0.906818 0.399994 0.5 0.806812 0.5 1.30908V9.4909C0.5 9.99318 0.906818 10.4 1.40909 10.4H9.59091C10.0932 10.4 10.5 9.99318 10.5 9.4909V1.30908C10.5 0.806812 10.0932 0.399994 9.59091 0.399994ZM3.66091 8.58181H2.32V4.26727H3.66091V8.58181ZM2.97682 3.65045C2.54455 3.65045 2.195 3.29999 2.195 2.86863C2.195 2.43727 2.545 2.08727 2.97682 2.08727C3.40773 2.08727 3.75818 2.43772 3.75818 2.86863C3.75818 3.29999 3.40773 3.65045 2.97682 3.65045ZM8.68364 8.58181H7.34364V6.48363C7.34364 5.98318 7.33455 5.33954 6.64682 5.33954C5.94909 5.33954 5.84182 5.88454 5.84182 6.44727V8.58181H4.50182V4.26727H5.78818V4.85681H5.80636C5.98545 4.51772 6.42273 4.15999 7.075 4.15999C8.43273 4.15999 8.68364 5.05363 8.68364 6.21545V8.58181Z" fill="#59856E"/>
</svg>
