<svg width="9" height="11" viewBox="0 0 9 11" fill="none" xmlns="http://www.w3.org/2000/svg">
<path d="M1.03171 0.5C0.86692 0.5 0.74707 0.599875 0.74707 0.737203V10.2628C0.74707 10.4001 0.86692 10.5 1.03171 10.5H7.96804C8.13284 10.5 8.25269 10.4001 8.25269 10.2628V0.737203C8.25269 0.599875 8.13284 0.5 7.96804 0.5L1.03171 0.5ZM2.2452 1.74844H6.73958V7.99064H2.2452V1.74844ZM4.49239 8.61486C4.91186 8.61486 5.24145 8.88951 5.24145 9.23908C5.24145 9.58864 4.91186 9.8633 4.49239 9.8633C4.07291 9.8633 3.74332 9.58864 3.74332 9.23908C3.74332 8.88951 4.07291 8.61486 4.49239 8.61486Z" fill="#59856E"/>
</svg>
